<svg width="33" height="30" viewBox="0 0 33 30" fill="none" xmlns="http://www.w3.org/2000/svg">
<g clip-path="url(#clip0)">
<path d="M17.0031 10.5078C14.4478 10.5078 12.3866 12.5117 12.3866 14.9961C12.3866 17.4805 14.4478 19.4844 17.0031 19.4844C19.5585 19.4844 21.6196 17.4805 21.6196 14.9961C21.6196 12.5117 19.5585 10.5078 17.0031 10.5078ZM17.0031 17.9141C15.3518 17.9141 14.0018 16.6055 14.0018 14.9961C14.0018 13.3867 15.3478 12.0781 17.0031 12.0781C18.6585 12.0781 20.0045 13.3867 20.0045 14.9961C20.0045 16.6055 18.6545 17.9141 17.0031 17.9141V17.9141ZM22.8853 10.3242C22.8853 10.9063 22.4031 11.3711 21.8085 11.3711C21.2098 11.3711 20.7317 10.9023 20.7317 10.3242C20.7317 9.74609 21.2138 9.27734 21.8085 9.27734C22.4031 9.27734 22.8853 9.74609 22.8853 10.3242ZM25.9428 11.3867C25.8745 9.98438 25.5451 8.74219 24.4884 7.71875C23.4357 6.69531 22.158 6.375 20.7156 6.30469C19.229 6.22266 14.7732 6.22266 13.2866 6.30469C11.8482 6.37109 10.5705 6.69141 9.51384 7.71484C8.45714 8.73828 8.1317 9.98047 8.05937 11.3828C7.975 12.8281 7.975 17.1602 8.05937 18.6055C8.12768 20.0078 8.45714 21.25 9.51384 22.2734C10.5705 23.2969 11.8442 23.6172 13.2866 23.6875C14.7732 23.7695 19.229 23.7695 20.7156 23.6875C22.158 23.6211 23.4357 23.3008 24.4884 22.2734C25.5411 21.25 25.8705 20.0078 25.9428 18.6055C26.0272 17.1602 26.0272 12.832 25.9428 11.3867V11.3867ZM24.0223 20.1563C23.7089 20.9219 23.1022 21.5117 22.3107 21.8203C21.1254 22.2773 18.3129 22.1719 17.0031 22.1719C15.6933 22.1719 12.8768 22.2734 11.6955 21.8203C10.908 21.5156 10.3013 20.9258 9.98393 20.1563C9.51384 19.0039 9.62232 16.2695 9.62232 14.9961C9.62232 13.7227 9.51786 10.9844 9.98393 9.83594C10.2973 9.07031 10.904 8.48047 11.6955 8.17188C12.8808 7.71484 15.6933 7.82031 17.0031 7.82031C18.3129 7.82031 21.1295 7.71875 22.3107 8.17188C23.0982 8.47656 23.7049 9.06641 24.0223 9.83594C24.4924 10.9883 24.3839 13.7227 24.3839 14.9961C24.3839 16.2695 24.4924 19.0078 24.0223 20.1563Z" fill="white"/>
</g>
<path d="M32.5 15C32.5 22.9644 25.3825 29.5 16.5 29.5C7.61753 29.5 0.5 22.9644 0.5 15C0.5 7.03565 7.61753 0.5 16.5 0.5C25.3825 0.5 32.5 7.03565 32.5 15Z" fill="#C4C4C4" fill-opacity="0.04" stroke="white"/>
<defs>
<clipPath id="clip0">
<rect width="18" height="20" fill="white" transform="translate(8 5)"/>
</clipPath>
</defs>
</svg>
