<svg width="91" height="59" viewBox="0 0 91 59" fill="none" xmlns="http://www.w3.org/2000/svg">
<path d="M10.1893 37.1832L10.1882 36.8232L11.256 36.5321C12.0865 36.2896 12.5003 35.6884 12.4972 34.7284L12.4756 27.8884L6.55923 15.8096C6.34396 15.3303 6.14094 14.9708 5.95018 14.7314C5.78317 14.4919 5.52127 14.2887 5.16449 14.1217L4.5222 13.7996L4.52107 13.4396L14.0687 13.4116L14.0699 13.7716L13.4294 14.0255C12.9076 14.2431 12.6235 14.5439 12.5772 14.928C12.5309 15.2882 12.6273 15.7439 12.8666 16.2952L17.1002 25.7149L21.7718 15.9091C21.9606 15.5246 22.0306 15.1284 21.9818 14.7205C21.9568 14.3126 21.7066 14.0493 21.2312 13.9307L20.7319 13.7522L20.7307 13.3922L25.0058 13.3797L25.0069 13.7397L24.3308 13.9936C23.8801 14.163 23.5484 14.4039 23.3356 14.7166C23.1228 15.0052 22.9102 15.3778 22.6979 15.8344L17.8499 26.2167L17.8767 34.7127C17.8782 35.1927 17.9626 35.5885 18.1298 35.9C18.3208 36.1874 18.642 36.3905 19.0937 36.5092L20.199 36.7939L20.2001 37.1539L10.1893 37.1832ZM27.8655 37.6715C26.488 37.6755 25.3229 37.2829 24.3704 36.4937C23.4417 35.7044 22.9749 34.5658 22.9702 33.0778C22.9667 31.9498 23.5334 30.9161 24.6705 29.9768C25.8075 29.0135 27.5984 28.2882 30.0431 27.8011C30.4229 27.7279 30.8502 27.6547 31.325 27.5813C31.7997 27.4839 32.2981 27.3865 32.8203 27.2889L32.8114 24.4449C32.8062 22.8129 32.6007 21.6735 32.1949 21.0267C31.8128 20.3558 31.2061 20.0216 30.3748 20.024C29.8048 20.0257 29.3542 20.219 29.0229 20.604C28.6915 20.9649 28.4798 21.6016 28.3876 22.5139L28.3176 22.9101C28.2734 23.9422 28.0264 24.6989 27.5767 25.1802C27.1269 25.6616 26.5696 25.9032 25.9045 25.9051C25.287 25.907 24.7758 25.7164 24.3708 25.3336C23.9659 24.9508 23.7623 24.4354 23.7603 23.7874C23.7572 22.8034 24.0871 21.9744 24.75 21.3005C25.4366 20.6265 26.3375 20.1198 27.4527 19.7806C28.568 19.4413 29.7787 19.2698 31.085 19.2659C33.1988 19.2598 34.8273 19.783 35.9707 20.8357C37.1377 21.8643 37.7249 23.5546 37.7324 25.9066L37.7575 33.8626C37.7609 34.9426 38.2614 35.4811 39.2589 35.4782L40.0426 35.4759L40.3642 35.7629C39.9147 36.3403 39.4174 36.7857 38.8721 37.0993C38.3506 37.4128 37.6029 37.571 36.6292 37.5739C35.5841 37.5769 34.7521 37.3394 34.1331 36.8612C33.5377 36.3589 33.1438 35.7001 32.9512 34.8846C32.2411 35.6547 31.5069 36.3169 30.7487 36.8711C30.0141 37.4012 29.053 37.668 27.8655 37.6715ZM30.0317 35.4692C30.5067 35.4678 30.9458 35.3585 31.3488 35.1413C31.7756 34.9001 32.2732 34.5386 32.8417 34.0569L32.8226 28.0089C32.5853 28.0576 32.3479 28.1063 32.1106 28.155C31.8732 28.2037 31.6002 28.2525 31.2916 28.3014C30.2 28.5926 29.3228 29.0872 28.66 29.7851C28.0208 30.459 27.7031 31.3719 27.7067 32.5239C27.7098 33.5079 27.9378 34.2513 28.3907 34.754C28.8434 35.2326 29.3905 35.471 30.0317 35.4692ZM41.2084 37.0925L41.2072 36.7325L41.6343 36.5872C42.4884 36.2967 42.914 35.6955 42.9111 34.7835L42.8503 15.5235C42.8488 15.0435 42.7527 14.6838 42.5619 14.4443C42.3711 14.1809 42.0379 13.9899 41.5626 13.8712L41.0991 13.7646L41.0979 13.4046L47.6125 11.8375L48.0411 12.1603L47.9145 17.2007L47.9534 29.5127C47.9562 30.4007 47.959 31.2887 47.9618 32.1767C47.9882 33.0406 48.0029 33.9046 48.0056 34.7686C48.0071 35.2486 48.1033 35.6443 48.2943 35.9558C48.4852 36.2432 48.8066 36.4583 49.2583 36.6009L49.7217 36.7076L49.7229 37.0676L41.2084 37.0925ZM60.1808 19.1808C61.7246 19.1763 63.0437 19.4965 64.1383 20.1413C65.2328 20.7621 66.0668 21.6236 66.6403 22.726C67.2375 23.8042 67.5382 25.0394 67.5426 26.4314C67.5435 26.6954 67.5325 26.9714 67.5096 27.2595C67.4867 27.5235 67.44 27.7637 67.3694 27.9799L56.753 28.0109C56.7849 30.6029 57.2421 32.4736 58.1245 33.623C59.0305 34.7483 60.3623 35.3085 62.1199 35.3033C63.3074 35.2998 64.2687 35.105 65.0037 34.7189C65.7388 34.3327 66.4258 33.7667 67.0647 33.0208L67.422 33.3438C66.6899 34.6659 65.7075 35.7008 64.4748 36.4484C63.2659 37.196 61.8064 37.5723 60.0964 37.5773C58.4101 37.5822 56.9127 37.2266 55.6041 36.5104C54.2955 35.7702 53.2709 34.7172 52.5303 33.3513C51.7897 31.9855 51.4165 30.3546 51.4105 28.4586C51.4043 26.4906 51.8265 24.8213 52.6772 23.4508C53.5278 22.0563 54.617 20.9971 55.9448 20.2732C57.2963 19.5493 58.7083 19.1851 60.1808 19.1808ZM60.0762 19.9012C59.3874 19.9032 58.7943 20.1209 58.297 20.5544C57.8232 20.9638 57.4456 21.7089 57.164 22.7897C56.9061 23.8465 56.7683 25.3469 56.7507 27.2909L62.8427 27.2731C63.0719 24.6564 62.971 22.7727 62.5398 21.622C62.1087 20.4712 61.2875 19.8976 60.0762 19.9012Z" fill="white"/>
<path d="M10.1893 37.1832L9.69451 37.1847L9.69609 37.6847L10.1909 37.6832L10.1893 37.1832ZM10.1882 36.8232L10.0592 36.3405L9.69216 36.4405L9.69337 36.8247L10.1882 36.8232ZM11.256 36.5321L11.3851 37.0149L11.3935 37.0124L11.256 36.5321ZM12.4756 27.8884L12.9704 27.887L12.9701 27.7708L12.9191 27.6667L12.4756 27.8884ZM6.55923 15.8096L6.10866 16.0161L6.1121 16.0238L6.11579 16.0313L6.55923 15.8096ZM5.95018 14.7314L5.54573 15.0193L5.55486 15.0324L5.5648 15.0449L5.95018 14.7314ZM5.16449 14.1217L4.94454 14.5697L4.95667 14.5754L5.16449 14.1217ZM4.5222 13.7996L4.0274 13.801L4.02838 14.11L4.30233 14.2474L4.5222 13.7996ZM4.52107 13.4396L4.51949 12.9396L4.02469 12.941L4.02627 13.441L4.52107 13.4396ZM14.0687 13.4116L14.5635 13.4102L14.562 12.9102L14.0672 12.9116L14.0687 13.4116ZM14.0699 13.7716L14.2507 14.2371L14.5657 14.1122L14.5647 13.7702L14.0699 13.7716ZM13.4294 14.0255L13.2486 13.56L13.2406 13.5633L13.4294 14.0255ZM12.5772 14.928L13.0679 14.9927L13.0684 14.9886L12.5772 14.928ZM12.8666 16.2952L12.4134 16.4959L12.416 16.5018L12.8666 16.2952ZM17.1002 25.7149L16.6497 25.9215L17.0872 26.895L17.546 25.9319L17.1002 25.7149ZM21.7718 15.9091L21.3285 15.6868L21.326 15.6921L21.7718 15.9091ZM21.9818 14.7205L21.488 14.7513L21.4889 14.7659L21.4906 14.7804L21.9818 14.7205ZM21.2312 13.9307L21.0663 14.4021L21.0891 14.4102L21.1127 14.4161L21.2312 13.9307ZM20.7319 13.7522L20.2371 13.7536L20.2382 14.106L20.5669 14.2235L20.7319 13.7522ZM20.7307 13.3922L20.7291 12.8922L20.2343 12.8936L20.2359 13.3936L20.7307 13.3922ZM25.0058 13.3797L25.5006 13.3782L25.499 12.8782L25.0042 12.8797L25.0058 13.3797ZM25.0069 13.7397L25.1795 14.2083L25.5028 14.0869L25.5017 13.7382L25.0069 13.7397ZM24.3308 13.9936L24.5034 14.4623L24.5034 14.4623L24.3308 13.9936ZM23.3356 14.7166L23.7324 15.0154L23.738 15.0078L23.7433 15L23.3356 14.7166ZM22.6979 15.8344L23.1454 16.0479L23.1457 16.0472L22.6979 15.8344ZM17.8499 26.2167L17.4024 26.0032L17.3547 26.1053L17.3551 26.2182L17.8499 26.2167ZM18.1298 35.9L17.6949 36.1383L17.706 36.159L17.719 36.1785L18.1298 35.9ZM19.0937 36.5092L18.9693 36.9931L18.9716 36.9937L19.0937 36.5092ZM20.199 36.7939L20.6938 36.7925L20.6925 36.4051L20.3211 36.3094L20.199 36.7939ZM20.2001 37.1539L20.2017 37.6539L20.6965 37.6525L20.6949 37.1525L20.2001 37.1539ZM10.6841 37.1818L10.683 36.8218L9.69337 36.8247L9.69451 37.1847L10.6841 37.1818ZM10.3172 37.3059L11.385 37.0148L11.127 36.0493L10.0592 36.3405L10.3172 37.3059ZM11.3935 37.0124C11.8959 36.8658 12.3119 36.597 12.5955 36.1849C12.8759 35.7774 12.9938 35.278 12.992 34.727L12.0024 34.7299C12.0037 35.1389 11.9163 35.4201 11.783 35.6138C11.6528 35.8029 11.4466 35.956 11.1186 36.0517L11.3935 37.0124ZM12.992 34.727L12.9704 27.887L11.9808 27.8899L12.0024 34.7299L12.992 34.727ZM12.9191 27.6667L7.00267 15.5879L6.11579 16.0313L12.0322 28.1101L12.9191 27.6667ZM7.0098 15.6031C6.78767 15.1085 6.56447 14.7052 6.33557 14.4179L5.5648 15.0449C5.71742 15.2365 5.90024 15.552 6.10866 16.0161L7.0098 15.6031ZM6.35463 14.4435C6.12289 14.1111 5.78092 13.8592 5.3723 13.668L4.95667 14.5754C5.26163 14.7181 5.44346 14.8726 5.54573 15.0193L6.35463 14.4435ZM5.38436 13.6738L4.74207 13.3517L4.30233 14.2474L4.94462 14.5696L5.38436 13.6738ZM5.017 13.7981L5.01587 13.4381L4.02627 13.441L4.0274 13.801L5.017 13.7981ZM4.52265 13.9396L14.0703 13.9116L14.0672 12.9116L4.51949 12.9396L4.52265 13.9396ZM13.5739 13.4131L13.5751 13.7731L14.5647 13.7702L14.5635 13.4102L13.5739 13.4131ZM13.8891 13.3062L13.2486 13.56L13.6102 14.491L14.2507 14.2371L13.8891 13.3062ZM13.2406 13.5633C12.6397 13.8138 12.1632 14.2268 12.0861 14.8674L13.0684 14.9886C13.0838 14.8609 13.1754 14.6723 13.6182 14.4877L13.2406 13.5633ZM12.0866 14.8634C12.0233 15.355 12.1592 15.9101 12.4134 16.4959L13.3197 16.0945C13.0954 15.5777 13.0385 15.2213 13.0679 14.9927L12.0866 14.8634ZM12.416 16.5018L16.6497 25.9215L17.5507 25.5082L13.3171 16.0885L12.416 16.5018ZM17.546 25.9319L22.2177 16.1261L21.326 15.6921L16.6543 25.4979L17.546 25.9319ZM22.2151 16.1315C22.4447 15.6637 22.534 15.1698 22.473 14.6607L21.4906 14.7804C21.5273 15.087 21.4765 15.3854 21.3286 15.6868L22.2151 16.1315ZM22.4757 14.6897C22.4568 14.3826 22.3483 14.0982 22.1322 13.8708C21.9231 13.6508 21.6469 13.5194 21.3497 13.4453L21.1127 14.4161C21.2909 14.4606 21.3775 14.5202 21.4186 14.5634C21.4526 14.5993 21.4818 14.6505 21.488 14.7513L22.4757 14.6897ZM21.3961 13.4593L20.8968 13.2808L20.5669 14.2235L21.0663 14.4021L21.3961 13.4593ZM21.2267 13.7507L21.2255 13.3907L20.2359 13.3936L20.2371 13.7536L21.2267 13.7507ZM20.7323 13.8922L25.0074 13.8797L25.0042 12.8797L20.7291 12.8922L20.7323 13.8922ZM24.511 13.3811L24.5121 13.7411L25.5017 13.7382L25.5006 13.3782L24.511 13.3811ZM24.8344 13.271L24.1583 13.525L24.5034 14.4623L25.1795 14.2083L24.8344 13.271ZM24.1583 13.525C23.6389 13.7201 23.2126 14.0148 22.9279 14.4331L23.7433 15C23.8841 14.7931 24.1213 14.6058 24.5034 14.4623L24.1583 13.525ZM22.9388 14.4177C22.7 14.7415 22.4713 15.1458 22.25 15.6217L23.1457 16.0472C23.3491 15.6098 23.5455 15.2688 23.7324 15.0154L22.9388 14.4177ZM22.2504 15.621L17.4024 26.0032L18.2974 26.4302L23.1454 16.0479L22.2504 15.621ZM17.3551 26.2182L17.3819 34.7141L18.3715 34.7113L18.3447 26.2153L17.3551 26.2182ZM17.3819 34.7141C17.3836 35.2488 17.4773 35.7328 17.6949 36.1383L18.5648 35.6616C18.4479 35.4441 18.3729 35.1366 18.3715 34.7113L17.3819 34.7141ZM17.719 36.1785C17.9985 36.5993 18.4433 36.8548 18.9693 36.9931L19.2181 36.0253C18.8408 35.9261 18.643 35.7756 18.5407 35.6214L17.719 36.1785ZM18.9716 36.9937L20.0769 37.2784L20.3211 36.3094L19.2158 36.0247L18.9716 36.9937ZM19.7042 36.7954L19.7053 37.1554L20.6949 37.1525L20.6938 36.7925L19.7042 36.7954ZM20.1985 36.6539L10.1877 36.6832L10.1909 37.6832L20.2017 37.6539L20.1985 36.6539ZM24.3704 36.4937L24.052 36.8764L24.0568 36.8803L24.3704 36.4937ZM24.6705 29.9768L24.9838 30.364L24.9885 30.36L24.6705 29.9768ZM30.0431 27.8011L29.9504 27.3099L29.9473 27.3105L30.0431 27.8011ZM31.325 27.5813L31.3999 28.0756L31.4118 28.0737L31.4236 28.0713L31.325 27.5813ZM32.8203 27.2889L32.9104 27.7806L33.3165 27.7048L33.3151 27.2875L32.8203 27.2889ZM32.1949 21.0267L31.7661 21.276L31.7714 21.2853L31.7771 21.2943L32.1949 21.0267ZM29.0229 20.604L29.3857 20.9441L29.3911 20.9382L29.3963 20.9321L29.0229 20.604ZM28.3876 22.5139L28.8748 22.6019L28.878 22.5834L28.8799 22.5648L28.3876 22.5139ZM28.3176 22.9101L27.8305 22.822L27.8247 22.8549L27.8233 22.8883L28.3176 22.9101ZM27.5767 25.1802L27.9365 25.5236L27.5767 25.1802ZM24.3708 25.3336L24.7088 24.9685L24.3708 25.3336ZM24.75 21.3005L24.4051 20.9417L24.399 20.948L24.75 21.3005ZM27.4527 19.7806L27.31 19.3018L27.31 19.3018L27.4527 19.7806ZM35.9707 20.8357L35.6374 21.2053L35.6455 21.2124L35.9707 20.8357ZM40.0426 35.4759L40.3702 35.1012L40.2292 34.9753L40.0411 34.9759L40.0426 35.4759ZM40.3642 35.7629L40.7531 36.0722L41.042 35.701L40.6917 35.3883L40.3642 35.7629ZM38.8721 37.0993L38.6272 36.6647L38.619 36.6696L38.8721 37.0993ZM34.1331 36.8612L33.8161 37.245L33.8242 37.2518L33.8327 37.2584L34.1331 36.8612ZM32.9512 34.8846L33.4325 34.7687L33.2182 33.8615L32.5891 34.5437L32.9512 34.8846ZM30.7487 36.8711L31.0363 37.278L31.0387 37.2762L30.7487 36.8711ZM31.3488 35.1413L31.5818 35.5826L31.5905 35.5777L31.3488 35.1413ZM32.8417 34.0569L33.1597 34.4401L33.3373 34.2897L33.3365 34.0555L32.8417 34.0569ZM32.8226 28.0089L33.3174 28.0075L33.3155 27.3976L32.724 27.5189L32.8226 28.0089ZM31.2916 28.3014L31.2148 27.8074L31.1897 27.8114L31.1652 27.818L31.2916 28.3014ZM28.66 29.7851L28.3029 29.4389L28.3027 29.4391L28.66 29.7851ZM28.3907 34.754L28.0247 35.0906L28.033 35.0994L28.3907 34.754ZM27.8639 37.1715C26.5868 37.1753 25.5372 36.8139 24.6841 36.1071L24.0568 36.8803C25.1087 37.752 26.3891 38.1758 27.8671 38.1715L27.8639 37.1715ZM24.6888 36.1111C23.8952 35.4366 23.4694 34.4517 23.465 33.0763L22.4754 33.0792C22.4805 34.6799 22.9882 35.9723 24.052 36.8764L24.6888 36.1111ZM23.465 33.0763C23.4621 32.1435 23.9229 31.2403 24.9837 30.3639L24.3572 29.5896C23.144 30.5919 22.4713 31.7561 22.4754 33.0792L23.465 33.0763ZM24.9885 30.36C26.0319 29.4759 27.7271 28.7722 30.139 28.2916L29.9473 27.3105C27.4696 27.8042 25.583 28.551 24.3525 29.5936L24.9885 30.36ZM30.1359 28.2922C30.5085 28.2205 30.9297 28.1482 31.3999 28.0756L31.25 27.0871C30.7706 27.1612 30.3373 27.2354 29.9504 27.3099L30.1359 28.2922ZM31.4236 28.0713C31.8952 27.9746 32.3908 27.8777 32.9104 27.7806L32.7303 26.7973C32.2055 26.8953 31.7042 26.9933 31.2264 27.0913L31.4236 28.0713ZM33.3151 27.2875L33.3062 24.4435L32.3166 24.4464L32.3255 27.2904L33.3151 27.2875ZM33.3062 24.4435C33.301 22.8021 33.0998 21.5354 32.6128 20.7591L31.7771 21.2943C32.1016 21.8117 32.3114 22.8237 32.3166 24.4464L33.3062 24.4435ZM32.6238 20.7774C32.1442 19.9354 31.3636 19.5211 30.3733 19.524L30.3764 20.524C31.0486 20.5221 31.4814 20.7762 31.7661 21.276L32.6238 20.7774ZM30.3733 19.524C29.6811 19.526 29.087 19.7674 28.6495 20.2758L29.3963 20.9321C29.6213 20.6707 29.9286 20.5253 30.3764 20.524L30.3733 19.524ZM28.6601 20.2639C28.2153 20.7484 27.9903 21.5233 27.8954 22.4629L28.8799 22.5648C28.9693 21.6798 29.1677 21.1815 29.3857 20.9441L28.6601 20.2639ZM27.9005 22.4258L27.8305 22.822L28.8047 22.9981L28.8748 22.6019L27.9005 22.4258ZM27.8233 22.8883C27.7815 23.8645 27.55 24.4804 27.2169 24.8369L27.9365 25.5236C28.5028 24.9175 28.7653 24.0199 28.812 22.9318L27.8233 22.8883ZM27.2169 24.8369C26.8618 25.2169 26.4346 25.4036 25.903 25.4051L25.9061 26.4051C26.7045 26.4028 27.3921 26.1062 27.9365 25.5236L27.2169 24.8369ZM25.903 25.4051C25.3959 25.4066 25.0109 25.2542 24.7088 24.9685L24.0329 25.6987C24.5406 26.1787 25.1781 26.4073 25.9061 26.4051L25.903 25.4051ZM24.7088 24.9685C24.4193 24.6949 24.2568 24.3197 24.2551 23.7859L23.2655 23.7888C23.2679 24.5511 23.5124 25.2067 24.0329 25.6987L24.7088 24.9685ZM24.2551 23.7859C24.2524 22.9293 24.5342 22.2293 25.101 21.653L24.399 20.948C23.64 21.7196 23.262 22.6775 23.2655 23.7888L24.2551 23.7859ZM25.0948 21.6592C25.7135 21.0518 26.54 20.5805 27.5955 20.2593L27.31 19.3018C26.1351 19.6592 25.1597 20.2011 24.4052 20.9418L25.0948 21.6592ZM27.5955 20.2593C28.6597 19.9356 29.8224 19.7696 31.0865 19.7659L31.0834 18.7659C29.735 18.7699 28.4762 18.947 27.31 19.3018L27.5955 20.2593ZM31.0865 19.7659C33.1224 19.76 34.6147 20.2636 35.6375 21.2052L36.3039 20.4661C35.0399 19.3024 33.2751 18.7595 31.0834 18.7659L31.0865 19.7659ZM35.6455 21.2124C36.6606 22.1072 37.2304 23.6269 37.2376 25.908L38.2272 25.9051C38.2195 23.4822 37.6148 21.6214 36.2959 20.4589L35.6455 21.2124ZM37.2376 25.908L37.2627 33.864L38.2523 33.8611L38.2272 25.9051L37.2376 25.908ZM37.2627 33.864C37.2646 34.4728 37.4062 35.0221 37.7747 35.4187C38.1493 35.8217 38.6763 35.9799 39.2604 35.9782L39.2573 34.9782C38.8439 34.9794 38.622 34.8698 38.496 34.7342C38.3641 34.5922 38.2538 34.3323 38.2523 33.8611L37.2627 33.864ZM39.2604 35.9782L40.0442 35.9759L40.0411 34.9759L39.2573 34.9782L39.2604 35.9782ZM39.7151 35.8505L40.0366 36.1376L40.6917 35.3883L40.3702 35.1012L39.7151 35.8505ZM39.9752 35.4537C39.5592 35.9882 39.1088 36.3878 38.6273 36.6648L39.1169 37.5339C39.7259 37.1837 40.2703 36.6923 40.7531 36.0722L39.9752 35.4537ZM38.619 36.6696C38.2065 36.9176 37.5611 37.0712 36.6276 37.0739L36.6307 38.0739C37.6447 38.0709 38.4947 37.9081 39.1252 37.529L38.619 36.6696ZM36.6276 37.0739C35.6547 37.0767 34.9404 36.8556 34.4335 36.464L33.8327 37.2584C34.5638 37.8232 35.5136 38.0771 36.6307 38.0739L36.6276 37.0739ZM34.4501 36.4774C33.9425 36.0492 33.6021 35.4871 33.4325 34.7687L32.4699 35.0005C32.6854 35.913 33.133 36.6687 33.8161 37.245L34.4501 36.4774ZM32.5891 34.5437C31.8985 35.2927 31.1881 35.9327 30.4586 36.4659L31.0387 37.2762C31.8257 36.701 32.5837 36.0167 33.3133 35.2255L32.5891 34.5437ZM30.461 36.4642C29.8327 36.9176 28.9809 37.1682 27.8639 37.1715L27.8671 38.1715C29.1251 38.1678 30.1955 37.8848 31.0363 37.278L30.461 36.4642ZM30.0333 35.9692C30.5857 35.9675 31.1046 35.8396 31.5818 35.5825L31.1159 34.7001C30.7869 34.8774 30.4278 34.968 30.0301 34.9692L30.0333 35.9692ZM31.5905 35.5777C32.0543 35.3155 32.5783 34.9327 33.1597 34.4401L32.5237 33.6737C31.9681 34.1445 31.4969 34.4846 31.1072 34.7049L31.5905 35.5777ZM33.3365 34.0555L33.3174 28.0075L32.3278 28.0104L32.3469 34.0584L33.3365 34.0555ZM32.724 27.5189C32.4867 27.5676 32.2493 27.6163 32.012 27.665L32.2091 28.645C32.4465 28.5963 32.6838 28.5476 32.9212 28.4989L32.724 27.5189ZM32.012 27.665C31.7836 27.7119 31.5181 27.7594 31.2148 27.8074L31.3684 28.7954C31.6824 28.7456 31.9628 28.6956 32.2091 28.645L32.012 27.665ZM31.1652 27.818C30.0016 28.1284 29.0392 28.6636 28.3029 29.4389L29.017 30.1314C29.6064 29.5108 30.3984 29.0569 31.418 28.7849L31.1652 27.818ZM28.3027 29.4391C27.5552 30.2272 27.208 31.2759 27.2119 32.5254L28.2015 32.5225C28.1982 31.468 28.4865 30.6908 29.0173 30.1311L28.3027 29.4391ZM27.2119 32.5254C27.2153 33.5785 27.459 34.4624 28.0248 35.0905L28.7565 34.4174C28.4167 34.0402 28.2044 33.4373 28.2015 32.5225L27.2119 32.5254ZM28.033 35.0994C28.5772 35.6747 29.2531 35.9714 30.0333 35.9692L30.0301 34.9692C29.5278 34.9706 29.1097 34.7905 28.7483 34.4085L28.033 35.0994ZM41.2084 37.0925L40.7136 37.0939L40.7151 37.5939L41.2099 37.5925L41.2084 37.0925ZM41.2072 36.7325L41.0493 36.2586L40.7113 36.3736L40.7124 36.7339L41.2072 36.7325ZM41.6343 36.5872L41.4763 36.1134L41.6343 36.5872ZM42.5619 14.4443L42.1627 14.7396L42.1694 14.7489L42.1765 14.7578L42.5619 14.4443ZM41.5626 13.8712L41.681 13.3857L41.6723 13.3837L41.5626 13.8712ZM41.0991 13.7646L40.6043 13.766L40.6055 14.1638L40.9894 14.2521L41.0991 13.7646ZM41.0979 13.4046L40.9832 12.9182L40.6019 13.0099L40.6031 13.406L41.0979 13.4046ZM47.6125 11.8375L47.9082 11.4367L47.7227 11.297L47.4978 11.3511L47.6125 11.8375ZM48.0411 12.1603L48.5357 12.1731L48.5422 11.9142L48.3367 11.7594L48.0411 12.1603ZM47.9145 17.2007L47.4198 17.1879L47.4197 17.195L47.4197 17.2021L47.9145 17.2007ZM47.9618 32.1767L47.4668 32.1781L47.4672 32.192L47.9618 32.1767ZM48.2943 35.9558L47.8738 36.219L47.8785 36.2268L47.8835 36.2343L48.2943 35.9558ZM49.2583 36.6009L49.1108 37.0782L49.1295 37.0841L49.1486 37.0885L49.2583 36.6009ZM49.7217 36.7076L50.2165 36.7061L50.2153 36.3084L49.8315 36.2201L49.7217 36.7076ZM49.7229 37.0676L49.7245 37.5676L50.2193 37.5661L50.2177 37.0661L49.7229 37.0676ZM41.7032 37.091L41.702 36.731L40.7124 36.7339L40.7136 37.0939L41.7032 37.091ZM41.3652 37.2064L41.7922 37.0611L41.4763 36.1134L41.0493 36.2586L41.3652 37.2064ZM41.7922 37.0611C42.2946 36.8903 42.7104 36.6136 42.9965 36.2094C43.2826 35.8053 43.4076 35.318 43.4059 34.782L42.4163 34.7849C42.4175 35.1609 42.3312 35.4303 42.1916 35.6274C42.0521 35.8245 41.828 35.9937 41.4763 36.1134L41.7922 37.0611ZM43.4059 34.782L43.3451 15.522L42.3555 15.5249L42.4163 34.7849L43.4059 34.782ZM43.3451 15.522C43.3434 14.9886 43.2385 14.4963 42.9473 14.1308L42.1765 14.7578C42.2668 14.8712 42.3542 15.0984 42.3555 15.5249L43.3451 15.522ZM42.9611 14.1491C42.674 13.7527 42.2134 13.5186 41.681 13.3858L41.4441 14.3567C41.8625 14.4611 42.0681 14.609 42.1627 14.7396L42.9611 14.1491ZM41.6723 13.3837L41.2088 13.2771L40.9894 14.2521L41.4528 14.3588L41.6723 13.3837ZM41.5939 13.7632L41.5927 13.4032L40.6031 13.406L40.6043 13.766L41.5939 13.7632ZM41.2127 13.891L47.7273 12.3239L47.4978 11.3511L40.9832 12.9182L41.2127 13.891ZM47.3169 12.2384L47.7455 12.5612L48.3367 11.7594L47.9082 11.4367L47.3169 12.2384ZM47.5464 12.1474L47.4198 17.1879L48.4091 17.2135L48.5357 12.1731L47.5464 12.1474ZM47.4197 17.2021L47.4586 29.5141L48.4482 29.5112L48.4093 17.1992L47.4197 17.2021ZM47.4586 29.5141C47.4586 29.5159 47.4586 29.5176 47.4586 29.5193C47.4586 29.5211 47.4586 29.5228 47.4586 29.5245C47.4586 29.5263 47.4586 29.528 47.4586 29.5297C47.4586 29.5315 47.4586 29.5332 47.4586 29.535C47.4586 29.5367 47.4586 29.5384 47.4586 29.5402C47.4586 29.5419 47.4587 29.5436 47.4587 29.5454C47.4587 29.5471 47.4587 29.5488 47.4587 29.5506C47.4587 29.5523 47.4587 29.554 47.4587 29.5558C47.4587 29.5575 47.4587 29.5592 47.4587 29.561C47.4587 29.5627 47.4587 29.5644 47.4587 29.5662C47.4587 29.5679 47.4587 29.5696 47.4587 29.5714C47.4587 29.5731 47.4587 29.5748 47.4588 29.5766C47.4588 29.5783 47.4588 29.58 47.4588 29.5818C47.4588 29.5835 47.4588 29.5852 47.4588 29.587C47.4588 29.5887 47.4588 29.5905 47.4588 29.5922C47.4588 29.5939 47.4588 29.5957 47.4588 29.5974C47.4588 29.5991 47.4588 29.6009 47.4588 29.6026C47.4588 29.6043 47.4588 29.6061 47.4589 29.6078C47.4589 29.6095 47.4589 29.6113 47.4589 29.613C47.4589 29.6147 47.4589 29.6165 47.4589 29.6182C47.4589 29.6199 47.4589 29.6217 47.4589 29.6234C47.4589 29.6251 47.4589 29.6269 47.4589 29.6286C47.4589 29.6303 47.4589 29.6321 47.4589 29.6338C47.4589 29.6355 47.4589 29.6373 47.459 29.639C47.459 29.6407 47.459 29.6425 47.459 29.6442C47.459 29.646 47.459 29.6477 47.459 29.6494C47.459 29.6512 47.459 29.6529 47.459 29.6546C47.459 29.6564 47.459 29.6581 47.459 29.6598C47.459 29.6616 47.459 29.6633 47.459 29.665C47.459 29.6668 47.459 29.6685 47.4591 29.6702C47.4591 29.672 47.4591 29.6737 47.4591 29.6754C47.4591 29.6772 47.4591 29.6789 47.4591 29.6806C47.4591 29.6824 47.4591 29.6841 47.4591 29.6858C47.4591 29.6876 47.4591 29.6893 47.4591 29.691C47.4591 29.6928 47.4591 29.6945 47.4591 29.6962C47.4591 29.698 47.4591 29.6997 47.4591 29.7015C47.4592 29.7032 47.4592 29.7049 47.4592 29.7067C47.4592 29.7084 47.4592 29.7101 47.4592 29.7119C47.4592 29.7136 47.4592 29.7153 47.4592 29.7171C47.4592 29.7188 47.4592 29.7205 47.4592 29.7223C47.4592 29.724 47.4592 29.7257 47.4592 29.7275C47.4592 29.7292 47.4592 29.7309 47.4592 29.7327C47.4593 29.7344 47.4593 29.7361 47.4593 29.7379C47.4593 29.7396 47.4593 29.7413 47.4593 29.7431C47.4593 29.7448 47.4593 29.7465 47.4593 29.7483C47.4593 29.75 47.4593 29.7517 47.4593 29.7535C47.4593 29.7552 47.4593 29.757 47.4593 29.7587C47.4593 29.7604 47.4593 29.7622 47.4593 29.7639C47.4594 29.7656 47.4594 29.7674 47.4594 29.7691C47.4594 29.7708 47.4594 29.7726 47.4594 29.7743C47.4594 29.776 47.4594 29.7778 47.4594 29.7795C47.4594 29.7812 47.4594 29.783 47.4594 29.7847C47.4594 29.7864 47.4594 29.7882 47.4594 29.7899C47.4594 29.7916 47.4594 29.7934 47.4594 29.7951C47.4595 29.7968 47.4595 29.7986 47.4595 29.8003C47.4595 29.802 47.4595 29.8038 47.4595 29.8055C47.4595 29.8072 47.4595 29.809 47.4595 29.8107C47.4595 29.8125 47.4595 29.8142 47.4595 29.8159C47.4595 29.8177 47.4595 29.8194 47.4595 29.8211C47.4595 29.8229 47.4595 29.8246 47.4595 29.8263C47.4595 29.8281 47.4596 29.8298 47.4596 29.8315C47.4596 29.8333 47.4596 29.835 47.4596 29.8367C47.4596 29.8385 47.4596 29.8402 47.4596 29.8419C47.4596 29.8437 47.4596 29.8454 47.4596 29.8471C47.4596 29.8489 47.4596 29.8506 47.4596 29.8523C47.4596 29.8541 47.4596 29.8558 47.4596 29.8575C47.4596 29.8593 47.4597 29.861 47.4597 29.8627C47.4597 29.8645 47.4597 29.8662 47.4597 29.868C47.4597 29.8697 47.4597 29.8714 47.4597 29.8732C47.4597 29.8749 47.4597 29.8766 47.4597 29.8784C47.4597 29.8801 47.4597 29.8818 47.4597 29.8836C47.4597 29.8853 47.4597 29.887 47.4597 29.8888C47.4597 29.8905 47.4598 29.8922 47.4598 29.894C47.4598 29.8957 47.4598 29.8974 47.4598 29.8992C47.4598 29.9009 47.4598 29.9026 47.4598 29.9044C47.4598 29.9061 47.4598 29.9078 47.4598 29.9096C47.4598 29.9113 47.4598 29.913 47.4598 29.9148C47.4598 29.9165 47.4598 29.9182 47.4598 29.92C47.4598 29.9217 47.4599 29.9235 47.4599 29.9252C47.4599 29.9269 47.4599 29.9287 47.4599 29.9304C47.4599 29.9321 47.4599 29.9339 47.4599 29.9356C47.4599 29.9373 47.4599 29.9391 47.4599 29.9408C47.4599 29.9425 47.4599 29.9443 47.4599 29.946C47.4599 29.9477 47.4599 29.9495 47.4599 29.9512C47.4599 29.9529 47.4599 29.9547 47.46 29.9564C47.46 29.9581 47.46 29.9599 47.46 29.9616C47.46 29.9633 47.46 29.9651 47.46 29.9668C47.46 29.9685 47.46 29.9703 47.46 29.972C47.46 29.9737 47.46 29.9755 47.46 29.9772C47.46 29.979 47.46 29.9807 47.46 29.9824C47.46 29.9842 47.46 29.9859 47.4601 29.9876C47.4601 29.9894 47.4601 29.9911 47.4601 29.9928C47.4601 29.9946 47.4601 29.9963 47.4601 29.998C47.4601 29.9998 47.4601 30.0015 47.4601 30.0032C47.4601 30.005 47.4601 30.0067 47.4601 30.0084C47.4601 30.0102 47.4601 30.0119 47.4601 30.0136C47.4601 30.0154 47.4601 30.0171 47.4602 30.0188C47.4602 30.0206 47.4602 30.0223 47.4602 30.024C47.4602 30.0258 47.4602 30.0275 47.4602 30.0292C47.4602 30.031 47.4602 30.0327 47.4602 30.0345C47.4602 30.0362 47.4602 30.0379 47.4602 30.0397C47.4602 30.0414 47.4602 30.0431 47.4602 30.0449C47.4602 30.0466 47.4602 30.0483 47.4602 30.0501C47.4603 30.0518 47.4603 30.0535 47.4603 30.0553C47.4603 30.057 47.4603 30.0587 47.4603 30.0605C47.4603 30.0622 47.4603 30.0639 47.4603 30.0657C47.4603 30.0674 47.4603 30.0691 47.4603 30.0709C47.4603 30.0726 47.4603 30.0743 47.4603 30.0761C47.4603 30.0778 47.4603 30.0795 47.4603 30.0813C47.4604 30.083 47.4604 30.0847 47.4604 30.0865C47.4604 30.0882 47.4604 30.09 47.4604 30.0917C47.4604 30.0934 47.4604 30.0952 47.4604 30.0969C47.4604 30.0986 47.4604 30.1004 47.4604 30.1021C47.4604 30.1038 47.4604 30.1056 47.4604 30.1073C47.4604 30.109 47.4604 30.1108 47.4604 30.1125C47.4605 30.1142 47.4605 30.116 47.4605 30.1177C47.4605 30.1194 47.4605 30.1212 47.4605 30.1229C47.4605 30.1246 47.4605 30.1264 47.4605 30.1281C47.4605 30.1298 47.4605 30.1316 47.4605 30.1333C47.4605 30.135 47.4605 30.1368 47.4605 30.1385C47.4605 30.1402 47.4605 30.142 47.4605 30.1437C47.4606 30.1455 47.4606 30.1472 47.4606 30.1489C47.4606 30.1507 47.4606 30.1524 47.4606 30.1541C47.4606 30.1559 47.4606 30.1576 47.4606 30.1593C47.4606 30.1611 47.4606 30.1628 47.4606 30.1645C47.4606 30.1663 47.4606 30.168 47.4606 30.1697C47.4606 30.1715 47.4606 30.1732 47.4606 30.1749C47.4606 30.1767 47.4607 30.1784 47.4607 30.1801C47.4607 30.1819 47.4607 30.1836 47.4607 30.1853C47.4607 30.1871 47.4607 30.1888 47.4607 30.1905C47.4607 30.1923 47.4607 30.194 47.4607 30.1957C47.4607 30.1975 47.4607 30.1992 47.4607 30.201C47.4607 30.2027 47.4607 30.2044 47.4607 30.2062C47.4607 30.2079 47.4608 30.2096 47.4608 30.2114C47.4608 30.2131 47.4608 30.2148 47.4608 30.2166C47.4608 30.2183 47.4608 30.22 47.4608 30.2218C47.4608 30.2235 47.4608 30.2252 47.4608 30.227C47.4608 30.2287 47.4608 30.2304 47.4608 30.2322C47.4608 30.2339 47.4608 30.2356 47.4608 30.2374C47.4608 30.2391 47.4609 30.2408 47.4609 30.2426C47.4609 30.2443 47.4609 30.246 47.4609 30.2478C47.4609 30.2495 47.4609 30.2512 47.4609 30.253C47.4609 30.2547 47.4609 30.2565 47.4609 30.2582C47.4609 30.2599 47.4609 30.2617 47.4609 30.2634C47.4609 30.2651 47.4609 30.2669 47.4609 30.2686C47.4609 30.2703 47.461 30.2721 47.461 30.2738C47.461 30.2755 47.461 30.2773 47.461 30.279C47.461 30.2807 47.461 30.2825 47.461 30.2842C47.461 30.2859 47.461 30.2877 47.461 30.2894C47.461 30.2911 47.461 30.2929 47.461 30.2946C47.461 30.2963 47.461 30.2981 47.461 30.2998C47.461 30.3015 47.461 30.3033 47.4611 30.305C47.4611 30.3067 47.4611 30.3085 47.4611 30.3102C47.4611 30.312 47.4611 30.3137 47.4611 30.3154C47.4611 30.3172 47.4611 30.3189 47.4611 30.3206C47.4611 30.3224 47.4611 30.3241 47.4611 30.3258C47.4611 30.3276 47.4611 30.3293 47.4611 30.331C47.4611 30.3328 47.4611 30.3345 47.4612 30.3362C47.4612 30.338 47.4612 30.3397 47.4612 30.3414C47.4612 30.3432 47.4612 30.3449 47.4612 30.3466C47.4612 30.3484 47.4612 30.3501 47.4612 30.3518C47.4612 30.3536 47.4612 30.3553 47.4612 30.357C47.4612 30.3588 47.4612 30.3605 47.4612 30.3622C47.4612 30.364 47.4612 30.3657 47.4613 30.3675C47.4613 30.3692 47.4613 30.3709 47.4613 30.3727C47.4613 30.3744 47.4613 30.3761 47.4613 30.3779C47.4613 30.3796 47.4613 30.3813 47.4613 30.3831C47.4613 30.3848 47.4613 30.3865 47.4613 30.3883C47.4613 30.39 47.4613 30.3917 47.4613 30.3935C47.4613 30.3952 47.4613 30.3969 47.4614 30.3987C47.4614 30.4004 47.4614 30.4021 47.4614 30.4039C47.4614 30.4056 47.4614 30.4073 47.4614 30.4091C47.4614 30.4108 47.4614 30.4125 47.4614 30.4143C47.4614 30.416 47.4614 30.4177 47.4614 30.4195C47.4614 30.4212 47.4614 30.423 47.4614 30.4247C47.4614 30.4264 47.4614 30.4282 47.4614 30.4299C47.4615 30.4316 47.4615 30.4334 47.4615 30.4351C47.4615 30.4368 47.4615 30.4386 47.4615 30.4403C47.4615 30.442 47.4615 30.4438 47.4615 30.4455C47.4615 30.4472 47.4615 30.449 47.4615 30.4507C47.4615 30.4524 47.4615 30.4542 47.4615 30.4559C47.4615 30.4576 47.4615 30.4594 47.4615 30.4611C47.4616 30.4628 47.4616 30.4646 47.4616 30.4663C47.4616 30.468 47.4616 30.4698 47.4616 30.4715C47.4616 30.4732 47.4616 30.475 47.4616 30.4767C47.4616 30.4785 47.4616 30.4802 47.4616 30.4819C47.4616 30.4837 47.4616 30.4854 47.4616 30.4871C47.4616 30.4889 47.4616 30.4906 47.4616 30.4923C47.4617 30.4941 47.4617 30.4958 47.4617 30.4975C47.4617 30.4993 47.4617 30.501 47.4617 30.5027C47.4617 30.5045 47.4617 30.5062 47.4617 30.5079C47.4617 30.5097 47.4617 30.5114 47.4617 30.5131C47.4617 30.5149 47.4617 30.5166 47.4617 30.5183C47.4617 30.5201 47.4617 30.5218 47.4617 30.5235C47.4618 30.5253 47.4618 30.527 47.4618 30.5287C47.4618 30.5305 47.4618 30.5322 47.4618 30.534C47.4618 30.5357 47.4618 30.5374 47.4618 30.5392C47.4618 30.5409 47.4618 30.5426 47.4618 30.5444C47.4618 30.5461 47.4618 30.5478 47.4618 30.5496C47.4618 30.5513 47.4618 30.553 47.4618 30.5548C47.4618 30.5565 47.4619 30.5582 47.4619 30.56C47.4619 30.5617 47.4619 30.5634 47.4619 30.5652C47.4619 30.5669 47.4619 30.5686 47.4619 30.5704C47.4619 30.5721 47.4619 30.5738 47.4619 30.5756C47.4619 30.5773 47.4619 30.579 47.4619 30.5808C47.4619 30.5825 47.4619 30.5842 47.4619 30.586C47.4619 30.5877 47.462 30.5895 47.462 30.5912C47.462 30.5929 47.462 30.5947 47.462 30.5964C47.462 30.5981 47.462 30.5999 47.462 30.6016C47.462 30.6033 47.462 30.6051 47.462 30.6068C47.462 30.6085 47.462 30.6103 47.462 30.612C47.462 30.6137 47.462 30.6155 47.462 30.6172C47.462 30.6189 47.4621 30.6207 47.4621 30.6224C47.4621 30.6241 47.4621 30.6259 47.4621 30.6276C47.4621 30.6293 47.4621 30.6311 47.4621 30.6328C47.4621 30.6345 47.4621 30.6363 47.4621 30.638C47.4621 30.6397 47.4621 30.6415 47.4621 30.6432C47.4621 30.645 47.4621 30.6467 47.4621 30.6484C47.4621 30.6502 47.4622 30.6519 47.4622 30.6536C47.4622 30.6554 47.4622 30.6571 47.4622 30.6588C47.4622 30.6606 47.4622 30.6623 47.4622 30.664C47.4622 30.6658 47.4622 30.6675 47.4622 30.6692C47.4622 30.671 47.4622 30.6727 47.4622 30.6744C47.4622 30.6762 47.4622 30.6779 47.4622 30.6796C47.4622 30.6814 47.4622 30.6831 47.4623 30.6848C47.4623 30.6866 47.4623 30.6883 47.4623 30.69C47.4623 30.6918 47.4623 30.6935 47.4623 30.6952C47.4623 30.697 47.4623 30.6987 47.4623 30.7005C47.4623 30.7022 47.4623 30.7039 47.4623 30.7057C47.4623 30.7074 47.4623 30.7091 47.4623 30.7109C47.4623 30.7126 47.4623 30.7143 47.4624 30.7161C47.4624 30.7178 47.4624 30.7195 47.4624 30.7213C47.4624 30.723 47.4624 30.7247 47.4624 30.7265C47.4624 30.7282 47.4624 30.7299 47.4624 30.7317C47.4624 30.7334 47.4624 30.7351 47.4624 30.7369C47.4624 30.7386 47.4624 30.7403 47.4624 30.7421C47.4624 30.7438 47.4624 30.7455 47.4625 30.7473C47.4625 30.749 47.4625 30.7507 47.4625 30.7525C47.4625 30.7542 47.4625 30.756 47.4625 30.7577C47.4625 30.7594 47.4625 30.7612 47.4625 30.7629C47.4625 30.7646 47.4625 30.7664 47.4625 30.7681C47.4625 30.7698 47.4625 30.7716 47.4625 30.7733C47.4625 30.775 47.4625 30.7768 47.4625 30.7785C47.4626 30.7802 47.4626 30.782 47.4626 30.7837C47.4626 30.7854 47.4626 30.7872 47.4626 30.7889C47.4626 30.7906 47.4626 30.7924 47.4626 30.7941C47.4626 30.7958 47.4626 30.7976 47.4626 30.7993C47.4626 30.801 47.4626 30.8028 47.4626 30.8045C47.4626 30.8062 47.4626 30.808 47.4626 30.8097C47.4627 30.8115 47.4627 30.8132 47.4627 30.8149C47.4627 30.8167 47.4627 30.8184 47.4627 30.8201C47.4627 30.8219 47.4627 30.8236 47.4627 30.8253C47.4627 30.8271 47.4627 30.8288 47.4627 30.8305C47.4627 30.8323 47.4627 30.834 47.4627 30.8357C47.4627 30.8375 47.4627 30.8392 47.4627 30.8409C47.4628 30.8427 47.4628 30.8444 47.4628 30.8461C47.4628 30.8479 47.4628 30.8496 47.4628 30.8513C47.4628 30.8531 47.4628 30.8548 47.4628 30.8565C47.4628 30.8583 47.4628 30.86 47.4628 30.8617C47.4628 30.8635 47.4628 30.8652 47.4628 30.867C47.4628 30.8687 47.4628 30.8704 47.4628 30.8722C47.4629 30.8739 47.4629 30.8756 47.4629 30.8774C47.4629 30.8791 47.4629 30.8808 47.4629 30.8826C47.4629 30.8843 47.4629 30.886 47.4629 30.8878C47.4629 30.8895 47.4629 30.8912 47.4629 30.893C47.4629 30.8947 47.4629 30.8964 47.4629 30.8982C47.4629 30.8999 47.4629 30.9016 47.4629 30.9034C47.4629 30.9051 47.463 30.9068 47.463 30.9086C47.463 30.9103 47.463 30.912 47.463 30.9138C47.463 30.9155 47.463 30.9172 47.463 30.919C47.463 30.9207 47.463 30.9225 47.463 30.9242C47.463 30.9259 47.463 30.9277 47.463 30.9294C47.463 30.9311 47.463 30.9329 47.463 30.9346C47.463 30.9363 47.4631 30.9381 47.4631 30.9398C47.4631 30.9415 47.4631 30.9433 47.4631 30.945C47.4631 30.9467 47.4631 30.9485 47.4631 30.9502C47.4631 30.9519 47.4631 30.9537 47.4631 30.9554C47.4631 30.9571 47.4631 30.9589 47.4631 30.9606C47.4631 30.9623 47.4631 30.9641 47.4631 30.9658C47.4631 30.9675 47.4632 30.9693 47.4632 30.971C47.4632 30.9727 47.4632 30.9745 47.4632 30.9762C47.4632 30.978 47.4632 30.9797 47.4632 30.9814C47.4632 30.9832 47.4632 30.9849 47.4632 30.9866C47.4632 30.9884 47.4632 30.9901 47.4632 30.9918C47.4632 30.9936 47.4632 30.9953 47.4632 30.997C47.4632 30.9988 47.4633 31.0005 47.4633 31.0022C47.4633 31.004 47.4633 31.0057 47.4633 31.0074C47.4633 31.0092 47.4633 31.0109 47.4633 31.0126C47.4633 31.0144 47.4633 31.0161 47.4633 31.0178C47.4633 31.0196 47.4633 31.0213 47.4633 31.023C47.4633 31.0248 47.4633 31.0265 47.4633 31.0282C47.4633 31.03 47.4633 31.0317 47.4634 31.0335C47.4634 31.0352 47.4634 31.0369 47.4634 31.0387C47.4634 31.0404 47.4634 31.0421 47.4634 31.0439C47.4634 31.0456 47.4634 31.0473 47.4634 31.0491C47.4634 31.0508 47.4634 31.0525 47.4634 31.0543C47.4634 31.056 47.4634 31.0577 47.4634 31.0595C47.4634 31.0612 47.4634 31.0629 47.4635 31.0647C47.4635 31.0664 47.4635 31.0681 47.4635 31.0699C47.4635 31.0716 47.4635 31.0733 47.4635 31.0751C47.4635 31.0768 47.4635 31.0785 47.4635 31.0803C47.4635 31.082 47.4635 31.0837 47.4635 31.0855C47.4635 31.0872 47.4635 31.089 47.4635 31.0907C47.4635 31.0924 47.4635 31.0942 47.4636 31.0959C47.4636 31.0976 47.4636 31.0994 47.4636 31.1011C47.4636 31.1028 47.4636 31.1046 47.4636 31.1063C47.4636 31.108 47.4636 31.1098 47.4636 31.1115C47.4636 31.1132 47.4636 31.115 47.4636 31.1167C47.4636 31.1184 47.4636 31.1202 47.4636 31.1219C47.4636 31.1236 47.4636 31.1254 47.4637 31.1271C47.4637 31.1288 47.4637 31.1306 47.4637 31.1323C47.4637 31.134 47.4637 31.1358 47.4637 31.1375C47.4637 31.1392 47.4637 31.141 47.4637 31.1427C47.4637 31.1445 47.4637 31.1462 47.4637 31.1479C47.4637 31.1497 47.4637 31.1514 47.4637 31.1531C47.4637 31.1549 47.4637 31.1566 47.4637 31.1583C47.4638 31.1601 47.4638 31.1618 47.4638 31.1635C47.4638 31.1653 47.4638 31.167 47.4638 31.1687C47.4638 31.1705 47.4638 31.1722 47.4638 31.1739C47.4638 31.1757 47.4638 31.1774 47.4638 31.1791C47.4638 31.1809 47.4638 31.1826 47.4638 31.1843C47.4638 31.1861 47.4638 31.1878 47.4638 31.1895C47.4639 31.1913 47.4639 31.193 47.4639 31.1947C47.4639 31.1965 47.4639 31.1982 47.4639 31.2C47.4639 31.2017 47.4639 31.2034 47.4639 31.2052C47.4639 31.2069 47.4639 31.2086 47.4639 31.2104C47.4639 31.2121 47.4639 31.2138 47.4639 31.2156C47.4639 31.2173 47.4639 31.219 47.4639 31.2208C47.464 31.2225 47.464 31.2242 47.464 31.226C47.464 31.2277 47.464 31.2294 47.464 31.2312C47.464 31.2329 47.464 31.2346 47.464 31.2364C47.464 31.2381 47.464 31.2398 47.464 31.2416C47.464 31.2433 47.464 31.245 47.464 31.2468C47.464 31.2485 47.464 31.2502 47.464 31.252C47.4641 31.2537 47.4641 31.2555 47.4641 31.2572C47.4641 31.2589 47.4641 31.2607 47.4641 31.2624C47.4641 31.2641 47.4641 31.2659 47.4641 31.2676C47.4641 31.2693 47.4641 31.2711 47.4641 31.2728C47.4641 31.2745 47.4641 31.2763 47.4641 31.278C47.4641 31.2797 47.4641 31.2815 47.4641 31.2832C47.4641 31.2849 47.4642 31.2867 47.4642 31.2884C47.4642 31.2901 47.4642 31.2919 47.4642 31.2936C47.4642 31.2953 47.4642 31.2971 47.4642 31.2988C47.4642 31.3005 47.4642 31.3023 47.4642 31.304C47.4642 31.3057 47.4642 31.3075 47.4642 31.3092C47.4642 31.311 47.4642 31.3127 47.4642 31.3144C47.4642 31.3162 47.4643 31.3179 47.4643 31.3196C47.4643 31.3214 47.4643 31.3231 47.4643 31.3248C47.4643 31.3266 47.4643 31.3283 47.4643 31.33C47.4643 31.3318 47.4643 31.3335 47.4643 31.3352C47.4643 31.337 47.4643 31.3387 47.4643 31.3404C47.4643 31.3422 47.4643 31.3439 47.4643 31.3456C47.4643 31.3474 47.4644 31.3491 47.4644 31.3508C47.4644 31.3526 47.4644 31.3543 47.4644 31.356C47.4644 31.3578 47.4644 31.3595 47.4644 31.3612C47.4644 31.363 47.4644 31.3647 47.4644 31.3665C47.4644 31.3682 47.4644 31.3699 47.4644 31.3717C47.4644 31.3734 47.4644 31.3751 47.4644 31.3769C47.4644 31.3786 47.4645 31.3803 47.4645 31.3821C47.4645 31.3838 47.4645 31.3855 47.4645 31.3873C47.4645 31.389 47.4645 31.3907 47.4645 31.3925C47.4645 31.3942 47.4645 31.3959 47.4645 31.3977C47.4645 31.3994 47.4645 31.4011 47.4645 31.4029C47.4645 31.4046 47.4645 31.4063 47.4645 31.4081C47.4645 31.4098 47.4645 31.4115 47.4646 31.4133C47.4646 31.415 47.4646 31.4167 47.4646 31.4185C47.4646 31.4202 47.4646 31.422 47.4646 31.4237C47.4646 31.4254 47.4646 31.4272 47.4646 31.4289C47.4646 31.4306 47.4646 31.4324 47.4646 31.4341C47.4646 31.4358 47.4646 31.4376 47.4646 31.4393C47.4646 31.441 47.4646 31.4428 47.4647 31.4445C47.4647 31.4462 47.4647 31.448 47.4647 31.4497C47.4647 31.4514 47.4647 31.4532 47.4647 31.4549C47.4647 31.4566 47.4647 31.4584 47.4647 31.4601C47.4647 31.4618 47.4647 31.4636 47.4647 31.4653C47.4647 31.467 47.4647 31.4688 47.4647 31.4705C47.4647 31.4722 47.4647 31.474 47.4648 31.4757C47.4648 31.4775 47.4648 31.4792 47.4648 31.4809C47.4648 31.4827 47.4648 31.4844 47.4648 31.4861C47.4648 31.4879 47.4648 31.4896 47.4648 31.4913C47.4648 31.4931 47.4648 31.4948 47.4648 31.4965C47.4648 31.4983 47.4648 31.5 47.4648 31.5017C47.4648 31.5035 47.4648 31.5052 47.4648 31.5069C47.4649 31.5087 47.4649 31.5104 47.4649 31.5121C47.4649 31.5139 47.4649 31.5156 47.4649 31.5173C47.4649 31.5191 47.4649 31.5208 47.4649 31.5225C47.4649 31.5243 47.4649 31.526 47.4649 31.5277C47.4649 31.5295 47.4649 31.5312 47.4649 31.533C47.4649 31.5347 47.4649 31.5364 47.4649 31.5382C47.465 31.5399 47.465 31.5416 47.465 31.5434C47.465 31.5451 47.465 31.5468 47.465 31.5486C47.465 31.5503 47.465 31.552 47.465 31.5538C47.465 31.5555 47.465 31.5572 47.465 31.559C47.465 31.5607 47.465 31.5624 47.465 31.5642C47.465 31.5659 47.465 31.5676 47.465 31.5694C47.4651 31.5711 47.4651 31.5728 47.4651 31.5746C47.4651 31.5763 47.4651 31.578 47.4651 31.5798C47.4651 31.5815 47.4651 31.5832 47.4651 31.585C47.4651 31.5867 47.4651 31.5885 47.4651 31.5902C47.4651 31.5919 47.4651 31.5937 47.4651 31.5954C47.4651 31.5971 47.4651 31.5989 47.4651 31.6006C47.4652 31.6023 47.4652 31.6041 47.4652 31.6058C47.4652 31.6075 47.4652 31.6093 47.4652 31.611C47.4652 31.6127 47.4652 31.6145 47.4652 31.6162C47.4652 31.6179 47.4652 31.6197 47.4652 31.6214C47.4652 31.6231 47.4652 31.6249 47.4652 31.6266C47.4652 31.6283 47.4652 31.6301 47.4652 31.6318C47.4652 31.6335 47.4653 31.6353 47.4653 31.637C47.4653 31.6387 47.4653 31.6405 47.4653 31.6422C47.4653 31.644 47.4653 31.6457 47.4653 31.6474C47.4653 31.6492 47.4653 31.6509 47.4653 31.6526C47.4653 31.6544 47.4653 31.6561 47.4653 31.6578C47.4653 31.6596 47.4653 31.6613 47.4653 31.663C47.4653 31.6648 47.4654 31.6665 47.4654 31.6682C47.4654 31.67 47.4654 31.6717 47.4654 31.6734C47.4654 31.6752 47.4654 31.6769 47.4654 31.6786C47.4654 31.6804 47.4654 31.6821 47.4654 31.6838C47.4654 31.6856 47.4654 31.6873 47.4654 31.689C47.4654 31.6908 47.4654 31.6925 47.4654 31.6942C47.4654 31.696 47.4655 31.6977 47.4655 31.6995C47.4655 31.7012 47.4655 31.7029 47.4655 31.7047C47.4655 31.7064 47.4655 31.7081 47.4655 31.7099C47.4655 31.7116 47.4655 31.7133 47.4655 31.7151C47.4655 31.7168 47.4655 31.7185 47.4655 31.7203C47.4655 31.722 47.4655 31.7237 47.4655 31.7255C47.4655 31.7272 47.4656 31.7289 47.4656 31.7307C47.4656 31.7324 47.4656 31.7341 47.4656 31.7359C47.4656 31.7376 47.4656 31.7393 47.4656 31.7411C47.4656 31.7428 47.4656 31.7445 47.4656 31.7463C47.4656 31.748 47.4656 31.7497 47.4656 31.7515C47.4656 31.7532 47.4656 31.755 47.4656 31.7567C47.4656 31.7584 47.4656 31.7602 47.4657 31.7619C47.4657 31.7636 47.4657 31.7654 47.4657 31.7671C47.4657 31.7688 47.4657 31.7706 47.4657 31.7723C47.4657 31.774 47.4657 31.7758 47.4657 31.7775C47.4657 31.7792 47.4657 31.781 47.4657 31.7827C47.4657 31.7844 47.4657 31.7862 47.4657 31.7879C47.4657 31.7896 47.4657 31.7914 47.4658 31.7931C47.4658 31.7948 47.4658 31.7966 47.4658 31.7983C47.4658 31.8 47.4658 31.8018 47.4658 31.8035C47.4658 31.8052 47.4658 31.807 47.4658 31.8087C47.4658 31.8105 47.4658 31.8122 47.4658 31.8139C47.4658 31.8157 47.4658 31.8174 47.4658 31.8191C47.4658 31.8209 47.4658 31.8226 47.4659 31.8243C47.4659 31.8261 47.4659 31.8278 47.4659 31.8295C47.4659 31.8313 47.4659 31.833 47.4659 31.8347C47.4659 31.8365 47.4659 31.8382 47.4659 31.8399C47.4659 31.8417 47.4659 31.8434 47.4659 31.8451C47.4659 31.8469 47.4659 31.8486 47.4659 31.8503C47.4659 31.8521 47.4659 31.8538 47.466 31.8555C47.466 31.8573 47.466 31.859 47.466 31.8607C47.466 31.8625 47.466 31.8642 47.466 31.866C47.466 31.8677 47.466 31.8694 47.466 31.8712C47.466 31.8729 47.466 31.8746 47.466 31.8764C47.466 31.8781 47.466 31.8798 47.466 31.8816C47.466 31.8833 47.466 31.885 47.466 31.8868C47.4661 31.8885 47.4661 31.8902 47.4661 31.892C47.4661 31.8937 47.4661 31.8954 47.4661 31.8972C47.4661 31.8989 47.4661 31.9006 47.4661 31.9024C47.4661 31.9041 47.4661 31.9058 47.4661 31.9076C47.4661 31.9093 47.4661 31.911 47.4661 31.9128C47.4661 31.9145 47.4661 31.9162 47.4661 31.918C47.4662 31.9197 47.4662 31.9215 47.4662 31.9232C47.4662 31.9249 47.4662 31.9267 47.4662 31.9284C47.4662 31.9301 47.4662 31.9319 47.4662 31.9336C47.4662 31.9353 47.4662 31.9371 47.4662 31.9388C47.4662 31.9405 47.4662 31.9423 47.4662 31.944C47.4662 31.9457 47.4662 31.9475 47.4662 31.9492C47.4663 31.9509 47.4663 31.9527 47.4663 31.9544C47.4663 31.9561 47.4663 31.9579 47.4663 31.9596C47.4663 31.9613 47.4663 31.9631 47.4663 31.9648C47.4663 31.9665 47.4663 31.9683 47.4663 31.97C47.4663 31.9717 47.4663 31.9735 47.4663 31.9752C47.4663 31.977 47.4663 31.9787 47.4663 31.9804C47.4664 31.9822 47.4664 31.9839 47.4664 31.9856C47.4664 31.9874 47.4664 31.9891 47.4664 31.9908C47.4664 31.9926 47.4664 31.9943 47.4664 31.996C47.4664 31.9978 47.4664 31.9995 47.4664 32.0012C47.4664 32.003 47.4664 32.0047 47.4664 32.0064C47.4664 32.0082 47.4664 32.0099 47.4664 32.0116C47.4664 32.0134 47.4665 32.0151 47.4665 32.0168C47.4665 32.0186 47.4665 32.0203 47.4665 32.022C47.4665 32.0238 47.4665 32.0255 47.4665 32.0272C47.4665 32.029 47.4665 32.0307 47.4665 32.0325C47.4665 32.0342 47.4665 32.0359 47.4665 32.0377C47.4665 32.0394 47.4665 32.0411 47.4665 32.0429C47.4665 32.0446 47.4666 32.0463 47.4666 32.0481C47.4666 32.0498 47.4666 32.0515 47.4666 32.0533C47.4666 32.055 47.4666 32.0567 47.4666 32.0585C47.4666 32.0602 47.4666 32.0619 47.4666 32.0637C47.4666 32.0654 47.4666 32.0671 47.4666 32.0689C47.4666 32.0706 47.4666 32.0723 47.4666 32.0741C47.4666 32.0758 47.4667 32.0775 47.4667 32.0793C47.4667 32.081 47.4667 32.0827 47.4667 32.0845C47.4667 32.0862 47.4667 32.088 47.4667 32.0897C47.4667 32.0914 47.4667 32.0932 47.4667 32.0949C47.4667 32.0966 47.4667 32.0984 47.4667 32.1001C47.4667 32.1018 47.4667 32.1036 47.4667 32.1053C47.4667 32.107 47.4668 32.1088 47.4668 32.1105C47.4668 32.1122 47.4668 32.114 47.4668 32.1157C47.4668 32.1174 47.4668 32.1192 47.4668 32.1209C47.4668 32.1226 47.4668 32.1244 47.4668 32.1261C47.4668 32.1278 47.4668 32.1296 47.4668 32.1313C47.4668 32.133 47.4668 32.1348 47.4668 32.1365C47.4668 32.1382 47.4668 32.14 47.4669 32.1417C47.4669 32.1435 47.4669 32.1452 47.4669 32.1469C47.4669 32.1487 47.4669 32.1504 47.4669 32.1521C47.4669 32.1539 47.4669 32.1556 47.4669 32.1573C47.4669 32.1591 47.4669 32.1608 47.4669 32.1625C47.4669 32.1643 47.4669 32.166 47.4669 32.1677C47.4669 32.1695 47.4669 32.1712 47.467 32.1729C47.467 32.1747 47.467 32.1764 47.467 32.1781L48.4566 32.1752C48.4566 32.1735 48.4566 32.1718 48.4566 32.17C48.4565 32.1683 48.4565 32.1666 48.4565 32.1648C48.4565 32.1631 48.4565 32.1614 48.4565 32.1596C48.4565 32.1579 48.4565 32.1562 48.4565 32.1544C48.4565 32.1527 48.4565 32.151 48.4565 32.1492C48.4565 32.1475 48.4565 32.1458 48.4565 32.144C48.4565 32.1423 48.4565 32.1406 48.4565 32.1388C48.4564 32.1371 48.4564 32.1354 48.4564 32.1336C48.4564 32.1319 48.4564 32.1302 48.4564 32.1284C48.4564 32.1267 48.4564 32.1249 48.4564 32.1232C48.4564 32.1215 48.4564 32.1197 48.4564 32.118C48.4564 32.1163 48.4564 32.1145 48.4564 32.1128C48.4564 32.1111 48.4564 32.1093 48.4564 32.1076C48.4564 32.1059 48.4563 32.1041 48.4563 32.1024C48.4563 32.1007 48.4563 32.0989 48.4563 32.0972C48.4563 32.0955 48.4563 32.0937 48.4563 32.092C48.4563 32.0903 48.4563 32.0885 48.4563 32.0868C48.4563 32.0851 48.4563 32.0833 48.4563 32.0816C48.4563 32.0799 48.4563 32.0781 48.4563 32.0764C48.4563 32.0747 48.4562 32.0729 48.4562 32.0712C48.4562 32.0694 48.4562 32.0677 48.4562 32.066C48.4562 32.0642 48.4562 32.0625 48.4562 32.0608C48.4562 32.059 48.4562 32.0573 48.4562 32.0556C48.4562 32.0538 48.4562 32.0521 48.4562 32.0504C48.4562 32.0486 48.4562 32.0469 48.4562 32.0452C48.4562 32.0434 48.4561 32.0417 48.4561 32.04C48.4561 32.0382 48.4561 32.0365 48.4561 32.0348C48.4561 32.033 48.4561 32.0313 48.4561 32.0296C48.4561 32.0278 48.4561 32.0261 48.4561 32.0244C48.4561 32.0226 48.4561 32.0209 48.4561 32.0192C48.4561 32.0174 48.4561 32.0157 48.4561 32.0139C48.4561 32.0122 48.456 32.0105 48.456 32.0087C48.456 32.007 48.456 32.0053 48.456 32.0035C48.456 32.0018 48.456 32.0001 48.456 31.9983C48.456 31.9966 48.456 31.9949 48.456 31.9931C48.456 31.9914 48.456 31.9897 48.456 31.9879C48.456 31.9862 48.456 31.9845 48.456 31.9827C48.456 31.981 48.456 31.9793 48.4559 31.9775C48.4559 31.9758 48.4559 31.9741 48.4559 31.9723C48.4559 31.9706 48.4559 31.9689 48.4559 31.9671C48.4559 31.9654 48.4559 31.9637 48.4559 31.9619C48.4559 31.9602 48.4559 31.9584 48.4559 31.9567C48.4559 31.955 48.4559 31.9532 48.4559 31.9515C48.4559 31.9498 48.4559 31.948 48.4558 31.9463C48.4558 31.9446 48.4558 31.9428 48.4558 31.9411C48.4558 31.9394 48.4558 31.9376 48.4558 31.9359C48.4558 31.9342 48.4558 31.9324 48.4558 31.9307C48.4558 31.929 48.4558 31.9272 48.4558 31.9255C48.4558 31.9238 48.4558 31.922 48.4558 31.9203C48.4558 31.9186 48.4558 31.9168 48.4557 31.9151C48.4557 31.9134 48.4557 31.9116 48.4557 31.9099C48.4557 31.9082 48.4557 31.9064 48.4557 31.9047C48.4557 31.9029 48.4557 31.9012 48.4557 31.8995C48.4557 31.8977 48.4557 31.896 48.4557 31.8943C48.4557 31.8925 48.4557 31.8908 48.4557 31.8891C48.4557 31.8873 48.4557 31.8856 48.4556 31.8839C48.4556 31.8821 48.4556 31.8804 48.4556 31.8787C48.4556 31.8769 48.4556 31.8752 48.4556 31.8735C48.4556 31.8717 48.4556 31.87 48.4556 31.8683C48.4556 31.8665 48.4556 31.8648 48.4556 31.8631C48.4556 31.8613 48.4556 31.8596 48.4556 31.8579C48.4556 31.8561 48.4556 31.8544 48.4556 31.8527C48.4555 31.8509 48.4555 31.8492 48.4555 31.8474C48.4555 31.8457 48.4555 31.844 48.4555 31.8422C48.4555 31.8405 48.4555 31.8388 48.4555 31.837C48.4555 31.8353 48.4555 31.8336 48.4555 31.8318C48.4555 31.8301 48.4555 31.8284 48.4555 31.8266C48.4555 31.8249 48.4555 31.8232 48.4555 31.8214C48.4554 31.8197 48.4554 31.818 48.4554 31.8162C48.4554 31.8145 48.4554 31.8128 48.4554 31.811C48.4554 31.8093 48.4554 31.8076 48.4554 31.8058C48.4554 31.8041 48.4554 31.8024 48.4554 31.8006C48.4554 31.7989 48.4554 31.7972 48.4554 31.7954C48.4554 31.7937 48.4554 31.7919 48.4554 31.7902C48.4553 31.7885 48.4553 31.7867 48.4553 31.785C48.4553 31.7833 48.4553 31.7815 48.4553 31.7798C48.4553 31.7781 48.4553 31.7763 48.4553 31.7746C48.4553 31.7729 48.4553 31.7711 48.4553 31.7694C48.4553 31.7677 48.4553 31.7659 48.4553 31.7642C48.4553 31.7625 48.4553 31.7607 48.4553 31.759C48.4552 31.7573 48.4552 31.7555 48.4552 31.7538C48.4552 31.7521 48.4552 31.7503 48.4552 31.7486C48.4552 31.7469 48.4552 31.7451 48.4552 31.7434C48.4552 31.7417 48.4552 31.7399 48.4552 31.7382C48.4552 31.7364 48.4552 31.7347 48.4552 31.733C48.4552 31.7312 48.4552 31.7295 48.4552 31.7278C48.4552 31.726 48.4551 31.7243 48.4551 31.7226C48.4551 31.7208 48.4551 31.7191 48.4551 31.7174C48.4551 31.7156 48.4551 31.7139 48.4551 31.7122C48.4551 31.7104 48.4551 31.7087 48.4551 31.707C48.4551 31.7052 48.4551 31.7035 48.4551 31.7018C48.4551 31.7 48.4551 31.6983 48.4551 31.6966C48.4551 31.6948 48.455 31.6931 48.455 31.6914C48.455 31.6896 48.455 31.6879 48.455 31.6862C48.455 31.6844 48.455 31.6827 48.455 31.6809C48.455 31.6792 48.455 31.6775 48.455 31.6757C48.455 31.674 48.455 31.6723 48.455 31.6705C48.455 31.6688 48.455 31.6671 48.455 31.6653C48.455 31.6636 48.4549 31.6619 48.4549 31.6601C48.4549 31.6584 48.4549 31.6567 48.4549 31.6549C48.4549 31.6532 48.4549 31.6515 48.4549 31.6497C48.4549 31.648 48.4549 31.6463 48.4549 31.6445C48.4549 31.6428 48.4549 31.6411 48.4549 31.6393C48.4549 31.6376 48.4549 31.6359 48.4549 31.6341C48.4549 31.6324 48.4548 31.6307 48.4548 31.6289C48.4548 31.6272 48.4548 31.6254 48.4548 31.6237C48.4548 31.622 48.4548 31.6202 48.4548 31.6185C48.4548 31.6168 48.4548 31.615 48.4548 31.6133C48.4548 31.6116 48.4548 31.6098 48.4548 31.6081C48.4548 31.6064 48.4548 31.6046 48.4548 31.6029C48.4548 31.6012 48.4548 31.5994 48.4547 31.5977C48.4547 31.596 48.4547 31.5942 48.4547 31.5925C48.4547 31.5908 48.4547 31.589 48.4547 31.5873C48.4547 31.5856 48.4547 31.5838 48.4547 31.5821C48.4547 31.5804 48.4547 31.5786 48.4547 31.5769C48.4547 31.5752 48.4547 31.5734 48.4547 31.5717C48.4547 31.5699 48.4547 31.5682 48.4546 31.5665C48.4546 31.5647 48.4546 31.563 48.4546 31.5613C48.4546 31.5595 48.4546 31.5578 48.4546 31.5561C48.4546 31.5543 48.4546 31.5526 48.4546 31.5509C48.4546 31.5491 48.4546 31.5474 48.4546 31.5457C48.4546 31.5439 48.4546 31.5422 48.4546 31.5405C48.4546 31.5387 48.4546 31.537 48.4545 31.5353C48.4545 31.5335 48.4545 31.5318 48.4545 31.5301C48.4545 31.5283 48.4545 31.5266 48.4545 31.5249C48.4545 31.5231 48.4545 31.5214 48.4545 31.5197C48.4545 31.5179 48.4545 31.5162 48.4545 31.5144C48.4545 31.5127 48.4545 31.511 48.4545 31.5092C48.4545 31.5075 48.4545 31.5058 48.4545 31.504C48.4544 31.5023 48.4544 31.5006 48.4544 31.4988C48.4544 31.4971 48.4544 31.4954 48.4544 31.4936C48.4544 31.4919 48.4544 31.4902 48.4544 31.4884C48.4544 31.4867 48.4544 31.485 48.4544 31.4832C48.4544 31.4815 48.4544 31.4798 48.4544 31.478C48.4544 31.4763 48.4544 31.4746 48.4544 31.4728C48.4543 31.4711 48.4543 31.4694 48.4543 31.4676C48.4543 31.4659 48.4543 31.4642 48.4543 31.4624C48.4543 31.4607 48.4543 31.4589 48.4543 31.4572C48.4543 31.4555 48.4543 31.4537 48.4543 31.452C48.4543 31.4503 48.4543 31.4485 48.4543 31.4468C48.4543 31.4451 48.4543 31.4433 48.4543 31.4416C48.4542 31.4399 48.4542 31.4381 48.4542 31.4364C48.4542 31.4347 48.4542 31.4329 48.4542 31.4312C48.4542 31.4295 48.4542 31.4277 48.4542 31.426C48.4542 31.4243 48.4542 31.4225 48.4542 31.4208C48.4542 31.4191 48.4542 31.4173 48.4542 31.4156C48.4542 31.4139 48.4542 31.4121 48.4542 31.4104C48.4541 31.4087 48.4541 31.4069 48.4541 31.4052C48.4541 31.4034 48.4541 31.4017 48.4541 31.4C48.4541 31.3982 48.4541 31.3965 48.4541 31.3948C48.4541 31.393 48.4541 31.3913 48.4541 31.3896C48.4541 31.3878 48.4541 31.3861 48.4541 31.3844C48.4541 31.3826 48.4541 31.3809 48.4541 31.3792C48.4541 31.3774 48.454 31.3757 48.454 31.374C48.454 31.3722 48.454 31.3705 48.454 31.3688C48.454 31.367 48.454 31.3653 48.454 31.3636C48.454 31.3618 48.454 31.3601 48.454 31.3584C48.454 31.3566 48.454 31.3549 48.454 31.3532C48.454 31.3514 48.454 31.3497 48.454 31.3479C48.454 31.3462 48.4539 31.3445 48.4539 31.3427C48.4539 31.341 48.4539 31.3393 48.4539 31.3375C48.4539 31.3358 48.4539 31.3341 48.4539 31.3323C48.4539 31.3306 48.4539 31.3289 48.4539 31.3271C48.4539 31.3254 48.4539 31.3237 48.4539 31.3219C48.4539 31.3202 48.4539 31.3185 48.4539 31.3167C48.4539 31.315 48.4538 31.3133 48.4538 31.3115C48.4538 31.3098 48.4538 31.3081 48.4538 31.3063C48.4538 31.3046 48.4538 31.3029 48.4538 31.3011C48.4538 31.2994 48.4538 31.2977 48.4538 31.2959C48.4538 31.2942 48.4538 31.2924 48.4538 31.2907C48.4538 31.289 48.4538 31.2872 48.4538 31.2855C48.4538 31.2838 48.4537 31.282 48.4537 31.2803C48.4537 31.2786 48.4537 31.2768 48.4537 31.2751C48.4537 31.2734 48.4537 31.2716 48.4537 31.2699C48.4537 31.2682 48.4537 31.2664 48.4537 31.2647C48.4537 31.263 48.4537 31.2612 48.4537 31.2595C48.4537 31.2578 48.4537 31.256 48.4537 31.2543C48.4537 31.2526 48.4537 31.2508 48.4536 31.2491C48.4536 31.2474 48.4536 31.2456 48.4536 31.2439C48.4536 31.2422 48.4536 31.2404 48.4536 31.2387C48.4536 31.2369 48.4536 31.2352 48.4536 31.2335C48.4536 31.2317 48.4536 31.23 48.4536 31.2283C48.4536 31.2265 48.4536 31.2248 48.4536 31.2231C48.4536 31.2213 48.4536 31.2196 48.4535 31.2179C48.4535 31.2161 48.4535 31.2144 48.4535 31.2127C48.4535 31.2109 48.4535 31.2092 48.4535 31.2075C48.4535 31.2057 48.4535 31.204 48.4535 31.2023C48.4535 31.2005 48.4535 31.1988 48.4535 31.1971C48.4535 31.1953 48.4535 31.1936 48.4535 31.1919C48.4535 31.1901 48.4535 31.1884 48.4534 31.1867C48.4534 31.1849 48.4534 31.1832 48.4534 31.1814C48.4534 31.1797 48.4534 31.178 48.4534 31.1762C48.4534 31.1745 48.4534 31.1728 48.4534 31.171C48.4534 31.1693 48.4534 31.1676 48.4534 31.1658C48.4534 31.1641 48.4534 31.1624 48.4534 31.1606C48.4534 31.1589 48.4534 31.1572 48.4533 31.1554C48.4533 31.1537 48.4533 31.152 48.4533 31.1502C48.4533 31.1485 48.4533 31.1468 48.4533 31.145C48.4533 31.1433 48.4533 31.1416 48.4533 31.1398C48.4533 31.1381 48.4533 31.1364 48.4533 31.1346C48.4533 31.1329 48.4533 31.1312 48.4533 31.1294C48.4533 31.1277 48.4533 31.1259 48.4533 31.1242C48.4532 31.1225 48.4532 31.1207 48.4532 31.119C48.4532 31.1173 48.4532 31.1155 48.4532 31.1138C48.4532 31.1121 48.4532 31.1103 48.4532 31.1086C48.4532 31.1069 48.4532 31.1051 48.4532 31.1034C48.4532 31.1017 48.4532 31.0999 48.4532 31.0982C48.4532 31.0965 48.4532 31.0947 48.4532 31.093C48.4531 31.0913 48.4531 31.0895 48.4531 31.0878C48.4531 31.0861 48.4531 31.0843 48.4531 31.0826C48.4531 31.0809 48.4531 31.0791 48.4531 31.0774C48.4531 31.0757 48.4531 31.0739 48.4531 31.0722C48.4531 31.0704 48.4531 31.0687 48.4531 31.067C48.4531 31.0652 48.4531 31.0635 48.4531 31.0618C48.453 31.06 48.453 31.0583 48.453 31.0566C48.453 31.0548 48.453 31.0531 48.453 31.0514C48.453 31.0496 48.453 31.0479 48.453 31.0462C48.453 31.0444 48.453 31.0427 48.453 31.041C48.453 31.0392 48.453 31.0375 48.453 31.0358C48.453 31.034 48.453 31.0323 48.453 31.0306C48.4529 31.0288 48.4529 31.0271 48.4529 31.0254C48.4529 31.0236 48.4529 31.0219 48.4529 31.0202C48.4529 31.0184 48.4529 31.0167 48.4529 31.0149C48.4529 31.0132 48.4529 31.0115 48.4529 31.0097C48.4529 31.008 48.4529 31.0063 48.4529 31.0045C48.4529 31.0028 48.4529 31.0011 48.4529 30.9993C48.4529 30.9976 48.4528 30.9959 48.4528 30.9941C48.4528 30.9924 48.4528 30.9907 48.4528 30.9889C48.4528 30.9872 48.4528 30.9855 48.4528 30.9837C48.4528 30.982 48.4528 30.9803 48.4528 30.9785C48.4528 30.9768 48.4528 30.9751 48.4528 30.9733C48.4528 30.9716 48.4528 30.9699 48.4528 30.9681C48.4528 30.9664 48.4527 30.9647 48.4527 30.9629C48.4527 30.9612 48.4527 30.9594 48.4527 30.9577C48.4527 30.956 48.4527 30.9542 48.4527 30.9525C48.4527 30.9508 48.4527 30.949 48.4527 30.9473C48.4527 30.9456 48.4527 30.9438 48.4527 30.9421C48.4527 30.9404 48.4527 30.9386 48.4527 30.9369C48.4527 30.9352 48.4526 30.9334 48.4526 30.9317C48.4526 30.93 48.4526 30.9282 48.4526 30.9265C48.4526 30.9248 48.4526 30.923 48.4526 30.9213C48.4526 30.9196 48.4526 30.9178 48.4526 30.9161C48.4526 30.9144 48.4526 30.9126 48.4526 30.9109C48.4526 30.9092 48.4526 30.9074 48.4526 30.9057C48.4526 30.9039 48.4525 30.9022 48.4525 30.9005C48.4525 30.8987 48.4525 30.897 48.4525 30.8953C48.4525 30.8935 48.4525 30.8918 48.4525 30.8901C48.4525 30.8883 48.4525 30.8866 48.4525 30.8849C48.4525 30.8831 48.4525 30.8814 48.4525 30.8797C48.4525 30.8779 48.4525 30.8762 48.4525 30.8745C48.4525 30.8727 48.4525 30.871 48.4524 30.8693C48.4524 30.8675 48.4524 30.8658 48.4524 30.8641C48.4524 30.8623 48.4524 30.8606 48.4524 30.8589C48.4524 30.8571 48.4524 30.8554 48.4524 30.8537C48.4524 30.8519 48.4524 30.8502 48.4524 30.8484C48.4524 30.8467 48.4524 30.845 48.4524 30.8432C48.4524 30.8415 48.4524 30.8398 48.4523 30.838C48.4523 30.8363 48.4523 30.8346 48.4523 30.8328C48.4523 30.8311 48.4523 30.8294 48.4523 30.8276C48.4523 30.8259 48.4523 30.8242 48.4523 30.8224C48.4523 30.8207 48.4523 30.819 48.4523 30.8172C48.4523 30.8155 48.4523 30.8138 48.4523 30.812C48.4523 30.8103 48.4523 30.8086 48.4522 30.8068C48.4522 30.8051 48.4522 30.8034 48.4522 30.8016C48.4522 30.7999 48.4522 30.7982 48.4522 30.7964C48.4522 30.7947 48.4522 30.7929 48.4522 30.7912C48.4522 30.7895 48.4522 30.7877 48.4522 30.786C48.4522 30.7843 48.4522 30.7825 48.4522 30.7808C48.4522 30.7791 48.4522 30.7773 48.4522 30.7756C48.4521 30.7739 48.4521 30.7721 48.4521 30.7704C48.4521 30.7687 48.4521 30.7669 48.4521 30.7652C48.4521 30.7635 48.4521 30.7617 48.4521 30.76C48.4521 30.7583 48.4521 30.7565 48.4521 30.7548C48.4521 30.7531 48.4521 30.7513 48.4521 30.7496C48.4521 30.7479 48.4521 30.7461 48.4521 30.7444C48.452 30.7427 48.452 30.7409 48.452 30.7392C48.452 30.7374 48.452 30.7357 48.452 30.734C48.452 30.7322 48.452 30.7305 48.452 30.7288C48.452 30.727 48.452 30.7253 48.452 30.7236C48.452 30.7218 48.452 30.7201 48.452 30.7184C48.452 30.7166 48.452 30.7149 48.452 30.7132C48.4519 30.7114 48.4519 30.7097 48.4519 30.708C48.4519 30.7062 48.4519 30.7045 48.4519 30.7028C48.4519 30.701 48.4519 30.6993 48.4519 30.6976C48.4519 30.6958 48.4519 30.6941 48.4519 30.6924C48.4519 30.6906 48.4519 30.6889 48.4519 30.6872C48.4519 30.6854 48.4519 30.6837 48.4519 30.6819C48.4518 30.6802 48.4518 30.6785 48.4518 30.6767C48.4518 30.675 48.4518 30.6733 48.4518 30.6715C48.4518 30.6698 48.4518 30.6681 48.4518 30.6663C48.4518 30.6646 48.4518 30.6629 48.4518 30.6611C48.4518 30.6594 48.4518 30.6577 48.4518 30.6559C48.4518 30.6542 48.4518 30.6525 48.4518 30.6507C48.4518 30.649 48.4517 30.6473 48.4517 30.6455C48.4517 30.6438 48.4517 30.6421 48.4517 30.6403C48.4517 30.6386 48.4517 30.6369 48.4517 30.6351C48.4517 30.6334 48.4517 30.6317 48.4517 30.6299C48.4517 30.6282 48.4517 30.6264 48.4517 30.6247C48.4517 30.623 48.4517 30.6212 48.4517 30.6195C48.4517 30.6178 48.4516 30.616 48.4516 30.6143C48.4516 30.6126 48.4516 30.6108 48.4516 30.6091C48.4516 30.6074 48.4516 30.6056 48.4516 30.6039C48.4516 30.6022 48.4516 30.6004 48.4516 30.5987C48.4516 30.597 48.4516 30.5952 48.4516 30.5935C48.4516 30.5918 48.4516 30.59 48.4516 30.5883C48.4516 30.5866 48.4515 30.5848 48.4515 30.5831C48.4515 30.5814 48.4515 30.5796 48.4515 30.5779C48.4515 30.5762 48.4515 30.5744 48.4515 30.5727C48.4515 30.5709 48.4515 30.5692 48.4515 30.5675C48.4515 30.5657 48.4515 30.564 48.4515 30.5623C48.4515 30.5605 48.4515 30.5588 48.4515 30.5571C48.4515 30.5553 48.4514 30.5536 48.4514 30.5519C48.4514 30.5501 48.4514 30.5484 48.4514 30.5467C48.4514 30.5449 48.4514 30.5432 48.4514 30.5415C48.4514 30.5397 48.4514 30.538 48.4514 30.5363C48.4514 30.5345 48.4514 30.5328 48.4514 30.5311C48.4514 30.5293 48.4514 30.5276 48.4514 30.5259C48.4514 30.5241 48.4514 30.5224 48.4513 30.5207C48.4513 30.5189 48.4513 30.5172 48.4513 30.5154C48.4513 30.5137 48.4513 30.512 48.4513 30.5102C48.4513 30.5085 48.4513 30.5068 48.4513 30.505C48.4513 30.5033 48.4513 30.5016 48.4513 30.4998C48.4513 30.4981 48.4513 30.4964 48.4513 30.4946C48.4513 30.4929 48.4513 30.4912 48.4512 30.4894C48.4512 30.4877 48.4512 30.486 48.4512 30.4842C48.4512 30.4825 48.4512 30.4808 48.4512 30.479C48.4512 30.4773 48.4512 30.4756 48.4512 30.4738C48.4512 30.4721 48.4512 30.4704 48.4512 30.4686C48.4512 30.4669 48.4512 30.4652 48.4512 30.4634C48.4512 30.4617 48.4512 30.4599 48.4511 30.4582C48.4511 30.4565 48.4511 30.4547 48.4511 30.453C48.4511 30.4513 48.4511 30.4495 48.4511 30.4478C48.4511 30.4461 48.4511 30.4443 48.4511 30.4426C48.4511 30.4409 48.4511 30.4391 48.4511 30.4374C48.4511 30.4357 48.4511 30.4339 48.4511 30.4322C48.4511 30.4305 48.4511 30.4287 48.451 30.427C48.451 30.4253 48.451 30.4235 48.451 30.4218C48.451 30.4201 48.451 30.4183 48.451 30.4166C48.451 30.4149 48.451 30.4131 48.451 30.4114C48.451 30.4097 48.451 30.4079 48.451 30.4062C48.451 30.4044 48.451 30.4027 48.451 30.401C48.451 30.3992 48.451 30.3975 48.451 30.3958C48.4509 30.394 48.4509 30.3923 48.4509 30.3906C48.4509 30.3888 48.4509 30.3871 48.4509 30.3854C48.4509 30.3836 48.4509 30.3819 48.4509 30.3802C48.4509 30.3784 48.4509 30.3767 48.4509 30.375C48.4509 30.3732 48.4509 30.3715 48.4509 30.3698C48.4509 30.368 48.4509 30.3663 48.4509 30.3646C48.4508 30.3628 48.4508 30.3611 48.4508 30.3594C48.4508 30.3576 48.4508 30.3559 48.4508 30.3542C48.4508 30.3524 48.4508 30.3507 48.4508 30.3489C48.4508 30.3472 48.4508 30.3455 48.4508 30.3437C48.4508 30.342 48.4508 30.3403 48.4508 30.3385C48.4508 30.3368 48.4508 30.3351 48.4508 30.3333C48.4507 30.3316 48.4507 30.3299 48.4507 30.3281C48.4507 30.3264 48.4507 30.3247 48.4507 30.3229C48.4507 30.3212 48.4507 30.3195 48.4507 30.3177C48.4507 30.316 48.4507 30.3143 48.4507 30.3125C48.4507 30.3108 48.4507 30.3091 48.4507 30.3073C48.4507 30.3056 48.4507 30.3039 48.4507 30.3021C48.4506 30.3004 48.4506 30.2987 48.4506 30.2969C48.4506 30.2952 48.4506 30.2934 48.4506 30.2917C48.4506 30.29 48.4506 30.2882 48.4506 30.2865C48.4506 30.2848 48.4506 30.283 48.4506 30.2813C48.4506 30.2796 48.4506 30.2778 48.4506 30.2761C48.4506 30.2744 48.4506 30.2726 48.4506 30.2709C48.4506 30.2692 48.4505 30.2674 48.4505 30.2657C48.4505 30.264 48.4505 30.2622 48.4505 30.2605C48.4505 30.2588 48.4505 30.257 48.4505 30.2553C48.4505 30.2536 48.4505 30.2518 48.4505 30.2501C48.4505 30.2484 48.4505 30.2466 48.4505 30.2449C48.4505 30.2432 48.4505 30.2414 48.4505 30.2397C48.4505 30.2379 48.4504 30.2362 48.4504 30.2345C48.4504 30.2327 48.4504 30.231 48.4504 30.2293C48.4504 30.2275 48.4504 30.2258 48.4504 30.2241C48.4504 30.2223 48.4504 30.2206 48.4504 30.2189C48.4504 30.2171 48.4504 30.2154 48.4504 30.2137C48.4504 30.2119 48.4504 30.2102 48.4504 30.2085C48.4504 30.2067 48.4503 30.205 48.4503 30.2033C48.4503 30.2015 48.4503 30.1998 48.4503 30.1981C48.4503 30.1963 48.4503 30.1946 48.4503 30.1929C48.4503 30.1911 48.4503 30.1894 48.4503 30.1877C48.4503 30.1859 48.4503 30.1842 48.4503 30.1824C48.4503 30.1807 48.4503 30.179 48.4503 30.1772C48.4503 30.1755 48.4502 30.1738 48.4502 30.172C48.4502 30.1703 48.4502 30.1686 48.4502 30.1668C48.4502 30.1651 48.4502 30.1634 48.4502 30.1616C48.4502 30.1599 48.4502 30.1582 48.4502 30.1564C48.4502 30.1547 48.4502 30.153 48.4502 30.1512C48.4502 30.1495 48.4502 30.1478 48.4502 30.146C48.4502 30.1443 48.4502 30.1426 48.4501 30.1408C48.4501 30.1391 48.4501 30.1374 48.4501 30.1356C48.4501 30.1339 48.4501 30.1322 48.4501 30.1304C48.4501 30.1287 48.4501 30.1269 48.4501 30.1252C48.4501 30.1235 48.4501 30.1217 48.4501 30.12C48.4501 30.1183 48.4501 30.1165 48.4501 30.1148C48.4501 30.1131 48.4501 30.1113 48.45 30.1096C48.45 30.1079 48.45 30.1061 48.45 30.1044C48.45 30.1027 48.45 30.1009 48.45 30.0992C48.45 30.0975 48.45 30.0957 48.45 30.094C48.45 30.0923 48.45 30.0905 48.45 30.0888C48.45 30.0871 48.45 30.0853 48.45 30.0836C48.45 30.0819 48.45 30.0801 48.4499 30.0784C48.4499 30.0767 48.4499 30.0749 48.4499 30.0732C48.4499 30.0714 48.4499 30.0697 48.4499 30.068C48.4499 30.0662 48.4499 30.0645 48.4499 30.0628C48.4499 30.061 48.4499 30.0593 48.4499 30.0576C48.4499 30.0558 48.4499 30.0541 48.4499 30.0524C48.4499 30.0506 48.4499 30.0489 48.4499 30.0472C48.4498 30.0454 48.4498 30.0437 48.4498 30.042C48.4498 30.0402 48.4498 30.0385 48.4498 30.0368C48.4498 30.035 48.4498 30.0333 48.4498 30.0316C48.4498 30.0298 48.4498 30.0281 48.4498 30.0264C48.4498 30.0246 48.4498 30.0229 48.4498 30.0212C48.4498 30.0194 48.4498 30.0177 48.4498 30.0159C48.4497 30.0142 48.4497 30.0125 48.4497 30.0107C48.4497 30.009 48.4497 30.0073 48.4497 30.0055C48.4497 30.0038 48.4497 30.0021 48.4497 30.0003C48.4497 29.9986 48.4497 29.9969 48.4497 29.9951C48.4497 29.9934 48.4497 29.9917 48.4497 29.9899C48.4497 29.9882 48.4497 29.9865 48.4497 29.9847C48.4496 29.983 48.4496 29.9813 48.4496 29.9795C48.4496 29.9778 48.4496 29.9761 48.4496 29.9743C48.4496 29.9726 48.4496 29.9709 48.4496 29.9691C48.4496 29.9674 48.4496 29.9657 48.4496 29.9639C48.4496 29.9622 48.4496 29.9604 48.4496 29.9587C48.4496 29.957 48.4496 29.9552 48.4496 29.9535C48.4495 29.9518 48.4495 29.95 48.4495 29.9483C48.4495 29.9466 48.4495 29.9448 48.4495 29.9431C48.4495 29.9414 48.4495 29.9396 48.4495 29.9379C48.4495 29.9362 48.4495 29.9344 48.4495 29.9327C48.4495 29.931 48.4495 29.9292 48.4495 29.9275C48.4495 29.9258 48.4495 29.924 48.4495 29.9223C48.4495 29.9206 48.4494 29.9188 48.4494 29.9171C48.4494 29.9154 48.4494 29.9136 48.4494 29.9119C48.4494 29.9102 48.4494 29.9084 48.4494 29.9067C48.4494 29.9049 48.4494 29.9032 48.4494 29.9015C48.4494 29.8997 48.4494 29.898 48.4494 29.8963C48.4494 29.8945 48.4494 29.8928 48.4494 29.8911C48.4494 29.8893 48.4493 29.8876 48.4493 29.8859C48.4493 29.8841 48.4493 29.8824 48.4493 29.8807C48.4493 29.8789 48.4493 29.8772 48.4493 29.8755C48.4493 29.8737 48.4493 29.872 48.4493 29.8703C48.4493 29.8685 48.4493 29.8668 48.4493 29.8651C48.4493 29.8633 48.4493 29.8616 48.4493 29.8599C48.4493 29.8581 48.4492 29.8564 48.4492 29.8547C48.4492 29.8529 48.4492 29.8512 48.4492 29.8494C48.4492 29.8477 48.4492 29.846 48.4492 29.8442C48.4492 29.8425 48.4492 29.8408 48.4492 29.839C48.4492 29.8373 48.4492 29.8356 48.4492 29.8338C48.4492 29.8321 48.4492 29.8304 48.4492 29.8286C48.4492 29.8269 48.4491 29.8252 48.4491 29.8234C48.4491 29.8217 48.4491 29.82 48.4491 29.8182C48.4491 29.8165 48.4491 29.8148 48.4491 29.813C48.4491 29.8113 48.4491 29.8096 48.4491 29.8078C48.4491 29.8061 48.4491 29.8044 48.4491 29.8026C48.4491 29.8009 48.4491 29.7992 48.4491 29.7974C48.4491 29.7957 48.4491 29.7939 48.449 29.7922C48.449 29.7905 48.449 29.7887 48.449 29.787C48.449 29.7853 48.449 29.7835 48.449 29.7818C48.449 29.7801 48.449 29.7783 48.449 29.7766C48.449 29.7749 48.449 29.7731 48.449 29.7714C48.449 29.7697 48.449 29.7679 48.449 29.7662C48.449 29.7645 48.449 29.7627 48.4489 29.761C48.4489 29.7593 48.4489 29.7575 48.4489 29.7558C48.4489 29.7541 48.4489 29.7523 48.4489 29.7506C48.4489 29.7489 48.4489 29.7471 48.4489 29.7454C48.4489 29.7437 48.4489 29.7419 48.4489 29.7402C48.4489 29.7384 48.4489 29.7367 48.4489 29.735C48.4489 29.7332 48.4489 29.7315 48.4488 29.7298C48.4488 29.728 48.4488 29.7263 48.4488 29.7246C48.4488 29.7228 48.4488 29.7211 48.4488 29.7194C48.4488 29.7176 48.4488 29.7159 48.4488 29.7142C48.4488 29.7124 48.4488 29.7107 48.4488 29.709C48.4488 29.7072 48.4488 29.7055 48.4488 29.7038C48.4488 29.702 48.4488 29.7003 48.4487 29.6986C48.4487 29.6968 48.4487 29.6951 48.4487 29.6934C48.4487 29.6916 48.4487 29.6899 48.4487 29.6882C48.4487 29.6864 48.4487 29.6847 48.4487 29.6829C48.4487 29.6812 48.4487 29.6795 48.4487 29.6777C48.4487 29.676 48.4487 29.6743 48.4487 29.6725C48.4487 29.6708 48.4487 29.6691 48.4487 29.6673C48.4486 29.6656 48.4486 29.6639 48.4486 29.6621C48.4486 29.6604 48.4486 29.6587 48.4486 29.6569C48.4486 29.6552 48.4486 29.6535 48.4486 29.6517C48.4486 29.65 48.4486 29.6483 48.4486 29.6465C48.4486 29.6448 48.4486 29.6431 48.4486 29.6413C48.4486 29.6396 48.4486 29.6379 48.4486 29.6361C48.4485 29.6344 48.4485 29.6327 48.4485 29.6309C48.4485 29.6292 48.4485 29.6274 48.4485 29.6257C48.4485 29.624 48.4485 29.6222 48.4485 29.6205C48.4485 29.6188 48.4485 29.617 48.4485 29.6153C48.4485 29.6136 48.4485 29.6118 48.4485 29.6101C48.4485 29.6084 48.4485 29.6066 48.4485 29.6049C48.4484 29.6032 48.4484 29.6014 48.4484 29.5997C48.4484 29.598 48.4484 29.5962 48.4484 29.5945C48.4484 29.5928 48.4484 29.591 48.4484 29.5893C48.4484 29.5876 48.4484 29.5858 48.4484 29.5841C48.4484 29.5824 48.4484 29.5806 48.4484 29.5789C48.4484 29.5772 48.4484 29.5754 48.4484 29.5737C48.4483 29.5719 48.4483 29.5702 48.4483 29.5685C48.4483 29.5667 48.4483 29.565 48.4483 29.5633C48.4483 29.5615 48.4483 29.5598 48.4483 29.5581C48.4483 29.5563 48.4483 29.5546 48.4483 29.5529C48.4483 29.5511 48.4483 29.5494 48.4483 29.5477C48.4483 29.5459 48.4483 29.5442 48.4483 29.5425C48.4483 29.5407 48.4482 29.539 48.4482 29.5373C48.4482 29.5355 48.4482 29.5338 48.4482 29.5321C48.4482 29.5303 48.4482 29.5286 48.4482 29.5269C48.4482 29.5251 48.4482 29.5234 48.4482 29.5217C48.4482 29.5199 48.4482 29.5182 48.4482 29.5164C48.4482 29.5147 48.4482 29.513 48.4482 29.5112L47.4586 29.5141ZM47.4672 32.192C47.4935 33.0513 47.5081 33.9107 47.5108 34.77L48.5004 34.7671C48.4976 33.8985 48.483 33.0299 48.4563 32.1614L47.4672 32.192ZM47.5108 34.77C47.5125 35.3145 47.6217 35.8081 47.8738 36.219L48.7149 35.6925C48.585 35.4806 48.5017 35.1827 48.5004 34.7671L47.5108 34.77ZM47.8835 36.2343C48.1574 36.6467 48.5921 36.9143 49.1108 37.0782L49.4058 36.1237C49.0211 36.0022 48.8131 35.8396 48.7052 35.6772L47.8835 36.2343ZM49.1486 37.0885L49.612 37.1951L49.8315 36.2201L49.368 36.1134L49.1486 37.0885ZM49.2269 36.709L49.2281 37.069L50.2177 37.0661L50.2165 36.7061L49.2269 36.709ZM49.7213 36.5676L41.2068 36.5925L41.2099 37.5925L49.7245 37.5676L49.7213 36.5676ZM64.1383 20.1413L63.8892 20.5733L63.8962 20.5773L64.1383 20.1413ZM66.6403 22.726L66.2022 22.9586L66.2085 22.9701L66.6403 22.726ZM67.5096 27.2595L68.0025 27.3033L68.0028 27.2996L67.5096 27.2595ZM67.3694 27.9799L67.371 28.4799L67.7276 28.4789L67.8393 28.1366L67.3694 27.9799ZM56.753 28.0109L56.7514 27.5109L56.252 27.5124L56.2582 28.017L56.753 28.0109ZM58.1245 33.623L57.7334 33.9295L57.7407 33.9385L58.1245 33.623ZM65.0037 34.7189L65.2321 35.1625L65.0037 34.7189ZM67.0647 33.0208L67.3945 32.6482L67.0196 32.3093L66.6905 32.6935L67.0647 33.0208ZM67.422 33.3438L67.8538 33.588L68.0474 33.2384L67.7518 32.9712L67.422 33.3438ZM64.4748 36.4484L64.2201 36.0197L64.2164 36.0219L64.4748 36.4484ZM55.6041 36.5104L55.3625 36.9467L55.3686 36.95L55.6041 36.5104ZM52.5303 33.3513L52.9643 33.1112L52.5303 33.3513ZM52.6772 23.4508L53.0964 23.7166L53.0984 23.7133L52.6772 23.4508ZM55.9448 20.2732L55.7129 19.8314L55.7097 19.8332L55.9448 20.2732ZM58.297 20.5544L58.6186 20.9344L58.6202 20.933L58.297 20.5544ZM57.164 22.7897L56.6854 22.6622L56.6836 22.6698L57.164 22.7897ZM56.7507 27.2909L56.2559 27.2862L56.2513 27.7924L56.7523 27.7909L56.7507 27.2909ZM62.8427 27.2731L62.8442 27.7731L63.2957 27.7718L63.3355 27.3174L62.8427 27.2731ZM62.5398 21.622L63.0026 21.445L62.5398 21.622ZM60.1824 19.6808C61.6573 19.6765 62.8858 19.9821 63.8892 20.5732L64.3874 19.7093C63.2017 19.0109 61.7918 18.6761 60.1792 18.6808L60.1824 19.6808ZM63.8962 20.5773C64.909 21.1517 65.6742 21.9434 66.2023 22.9585L67.0782 22.4934C66.4594 21.3039 65.5566 20.3724 64.3804 19.7053L63.8962 20.5773ZM66.2085 22.9701C66.7596 23.9652 67.0437 25.1148 67.0478 26.4328L68.0374 26.4299C68.0328 24.9639 67.7153 23.6433 67.072 22.4819L66.2085 22.9701ZM67.0478 26.4328C67.0486 26.6817 67.0382 26.9439 67.0164 27.2194L68.0028 27.2996C68.0267 26.999 68.0383 26.709 68.0374 26.4299L67.0478 26.4328ZM67.0167 27.2157C66.9966 27.4474 66.9563 27.649 66.8995 27.8232L67.8393 28.1366C67.9236 27.8784 67.9768 27.5997 68.0025 27.3033L67.0167 27.2157ZM67.3678 27.4799L56.7514 27.5109L56.7545 28.5109L67.371 28.4799L67.3678 27.4799ZM56.2582 28.017C56.2905 30.6425 56.7507 32.6491 57.7335 33.9294L58.5154 33.3166C57.7335 32.298 57.2792 30.5632 57.2477 28.0049L56.2582 28.017ZM57.7407 33.9385C58.7621 35.2071 60.2514 35.8088 62.1215 35.8033L62.1183 34.8033C60.4732 34.8081 59.2989 34.2895 58.5082 33.3075L57.7407 33.9385ZM62.1215 35.8033C63.356 35.7997 64.4033 35.5979 65.2321 35.1625L64.7754 34.2752C64.1341 34.6121 63.2588 34.8 62.1183 34.8033L62.1215 35.8033ZM65.2321 35.1625C66.0315 34.7425 66.7662 34.1334 67.4388 33.3481L66.6905 32.6935C66.0853 33.4 65.446 33.9229 64.7754 34.2752L65.2321 35.1625ZM66.7348 33.3934L67.0921 33.7164L67.7518 32.9712L67.3945 32.6482L66.7348 33.3934ZM66.9901 33.0995C66.2983 34.349 65.3756 35.3189 64.2201 36.0197L64.7295 36.8772C66.0394 36.0828 67.0815 34.9828 67.8538 33.588L66.9901 33.0995ZM64.2164 36.0219C63.0994 36.7126 61.733 37.0725 60.0948 37.0773L60.098 38.0773C61.8798 38.072 63.4323 37.6793 64.7332 36.8749L64.2164 36.0219ZM60.0948 37.0773C58.4801 37.082 57.0662 36.742 55.8397 36.0707L55.3686 36.95C56.7592 37.7111 58.3401 38.0824 60.098 38.0773L60.0948 37.0773ZM55.8457 36.0741C54.6205 35.3811 53.6615 34.3971 52.9643 33.1112L52.0964 33.5915C52.8803 35.0373 53.9705 36.1593 55.3626 36.9467L55.8457 36.0741ZM52.9643 33.1112C52.2711 31.8328 51.9111 30.2877 51.9053 28.4571L50.9157 28.46C50.9219 30.4215 51.3084 32.1381 52.0964 33.5915L52.9643 33.1112ZM51.9053 28.4571C51.8993 26.5631 52.3052 24.9913 53.0964 23.7166L52.258 23.185C51.3478 24.6514 50.9092 26.4181 50.9157 28.46L51.9053 28.4571ZM53.0984 23.7133C53.907 22.3877 54.9341 21.3924 56.1798 20.7133L55.7097 19.8332C54.2999 20.6018 53.1486 21.7249 52.256 23.1884L53.0984 23.7133ZM56.1766 20.715C57.46 20.0275 58.7933 19.6849 60.1824 19.6808L60.1792 18.6808C58.6232 18.6854 57.1325 19.071 55.7129 19.8315L56.1766 20.715ZM60.0746 19.4012C59.274 19.4035 58.5652 19.6603 57.9737 20.1757L58.6202 20.933C59.0235 20.5815 59.5009 20.4028 60.0778 20.4012L60.0746 19.4012ZM57.9753 20.1743C57.3858 20.6838 56.9753 21.5499 56.6855 22.6623L57.6425 22.9171C57.9159 21.8678 58.2607 21.2437 58.6186 20.9344L57.9753 20.1743ZM56.6836 22.6698C56.412 23.7827 56.2736 25.3286 56.2559 27.2862L57.2455 27.2957C57.263 25.3652 57.4002 23.9102 57.6444 22.9096L56.6836 22.6698ZM56.7523 27.7909L62.8442 27.7731L62.8411 26.7731L56.7491 26.7909L56.7523 27.7909ZM63.3355 27.3174C63.5655 24.6921 63.4763 22.7096 63.0026 21.445L62.0771 21.7989C62.4656 22.8358 62.5783 24.6208 62.3498 27.2289L63.3355 27.3174ZM63.0026 21.445C62.7593 20.7959 62.3917 20.2736 61.8818 19.9174C61.3717 19.5611 60.7594 19.3992 60.0746 19.4012L60.0778 20.4012C60.6043 20.3996 61.0082 20.5227 61.3193 20.74C61.6306 20.9574 61.8891 21.2973 62.0771 21.7989L63.0026 21.445Z" fill="white"/>
<path d="M7.46747 49.1502C6.51266 48.8729 5.81684 48.533 5.38003 48.1307C4.94708 47.7244 4.7306 47.2244 4.7306 46.6307C4.7306 45.9588 4.9954 45.4041 5.52499 44.9666C6.05845 44.5252 6.75039 44.3045 7.60083 44.3045C8.18067 44.3045 8.69673 44.4178 9.14901 44.6443C9.60516 44.8709 9.95693 45.1834 10.2043 45.5818C10.4556 45.9803 10.5812 46.4158 10.5812 46.8885H9.46213C9.46213 46.3729 9.29977 45.9686 8.97506 45.6756C8.65035 45.3787 8.19227 45.2303 7.60083 45.2303C7.05191 45.2303 6.62283 45.3533 6.31358 45.5994C6.00819 45.8416 5.8555 46.1795 5.8555 46.6131C5.8555 46.9608 6.00046 47.2557 6.29038 47.4979C6.58417 47.7361 7.0809 47.9549 7.78058 48.1541C8.48413 48.3533 9.03304 48.574 9.42734 48.8162C9.8255 49.0545 10.1193 49.3338 10.3087 49.6541C10.502 49.9744 10.5986 50.3514 10.5986 50.785C10.5986 51.4764 10.3319 52.0311 9.79844 52.449C9.26498 52.8631 8.55177 53.0701 7.65881 53.0701C7.07897 53.0701 6.53778 52.9588 6.03525 52.7361C5.53272 52.5096 5.14423 52.201 4.86977 51.8104C4.59917 51.4197 4.46388 50.9764 4.46388 50.4803H5.58297C5.58297 50.9959 5.77046 51.4041 6.14542 51.7049C6.52425 52.0018 7.02872 52.1502 7.65881 52.1502C8.24639 52.1502 8.69673 52.0291 9.00985 51.7869C9.32297 51.5447 9.47952 51.2147 9.47952 50.7967C9.47952 50.3787 9.33456 50.0565 9.04464 49.8299C8.75472 49.5994 8.22899 49.3729 7.46747 49.1502ZM14.3792 52.1854C14.7619 52.1854 15.0963 52.0682 15.3823 51.8338C15.6684 51.5994 15.8269 51.3065 15.8578 50.9549H16.8725C16.8532 51.3182 16.7295 51.6639 16.5014 51.992C16.2734 52.3201 15.968 52.5818 15.5853 52.7772C15.2064 52.9725 14.8044 53.0701 14.3792 53.0701C13.5249 53.0701 12.8446 52.783 12.3382 52.2088C11.8356 51.6307 11.5844 50.8416 11.5844 49.8416V49.66C11.5844 49.0428 11.6965 48.494 11.9207 48.0135C12.1449 47.533 12.4657 47.16 12.8832 46.8943C13.3046 46.6287 13.8013 46.4959 14.3734 46.4959C15.0769 46.4959 15.6607 46.7088 16.1245 47.1346C16.5923 47.5604 16.8416 48.1131 16.8725 48.7928H15.8578C15.8269 48.3826 15.6723 48.0467 15.3939 47.785C15.1195 47.5193 14.7793 47.3865 14.3734 47.3865C13.8284 47.3865 13.4051 47.5858 13.1035 47.9842C12.8059 48.3787 12.6571 48.951 12.6571 49.701V49.9061C12.6571 50.6365 12.8059 51.199 13.1035 51.5936C13.4012 51.9881 13.8264 52.1854 14.3792 52.1854ZM19.1513 47.3807C19.6268 46.7908 20.2453 46.4959 21.0068 46.4959C22.3327 46.4959 23.0015 47.2518 23.0131 48.7635V52.9529H21.9404V48.7576C21.9365 48.3006 21.8321 47.9627 21.6273 47.744C21.4262 47.5252 21.1112 47.4158 20.6821 47.4158C20.3342 47.4158 20.0288 47.5096 19.766 47.6971C19.5031 47.8846 19.2982 48.1307 19.1513 48.4354V52.9529H18.0786V43.9529H19.1513V47.3807ZM24.3351 49.7244C24.3351 49.1033 24.455 48.5447 24.6946 48.0486C24.9382 47.5526 25.2745 47.1697 25.7036 46.9002C26.1365 46.6307 26.6294 46.4959 27.1822 46.4959C28.0365 46.4959 28.7265 46.7947 29.2522 47.3924C29.7818 47.9901 30.0466 48.785 30.0466 49.7772V49.8533C30.0466 50.4705 29.9287 51.0252 29.6929 51.5174C29.4609 52.0057 29.1266 52.3865 28.6897 52.66C28.2568 52.9334 27.7581 53.0701 27.1938 53.0701C26.3433 53.0701 25.6533 52.7713 25.1237 52.1736C24.598 51.576 24.3351 50.785 24.3351 49.8006V49.7244ZM25.4136 49.8533C25.4136 50.5565 25.5741 51.1209 25.8949 51.5467C26.2196 51.9725 26.6526 52.1854 27.1938 52.1854C27.7388 52.1854 28.1718 51.9705 28.4926 51.5408C28.8134 51.1072 28.9739 50.5018 28.9739 49.7244C28.9739 49.0291 28.8096 48.4666 28.481 48.0369C28.1563 47.6033 27.7233 47.3865 27.1822 47.3865C26.6526 47.3865 26.2254 47.5994 25.9007 48.0252C25.576 48.451 25.4136 49.0604 25.4136 49.8533ZM31.1077 49.7244C31.1077 49.1033 31.2275 48.5447 31.4672 48.0486C31.7107 47.5526 32.047 47.1697 32.4761 46.9002C32.9091 46.6307 33.4019 46.4959 33.9547 46.4959C34.809 46.4959 35.499 46.7947 36.0248 47.3924C36.5544 47.9901 36.8192 48.785 36.8192 49.7772V49.8533C36.8192 50.4705 36.7013 51.0252 36.4655 51.5174C36.2335 52.0057 35.8991 52.3865 35.4623 52.66C35.0294 52.9334 34.5307 53.0701 33.9663 53.0701C33.1159 53.0701 32.4259 52.7713 31.8963 52.1736C31.3706 51.576 31.1077 50.785 31.1077 49.8006V49.7244ZM32.1862 49.8533C32.1862 50.5565 32.3466 51.1209 32.6675 51.5467C32.9922 51.9725 33.4251 52.1854 33.9663 52.1854C34.5114 52.1854 34.9443 51.9705 35.2652 51.5408C35.586 51.1072 35.7464 50.5018 35.7464 49.7244C35.7464 49.0291 35.5822 48.4666 35.2536 48.0369C34.9289 47.6033 34.4959 47.3865 33.9547 47.3865C33.4251 47.3865 32.998 47.5994 32.6733 48.0252C32.3486 48.451 32.1862 49.0604 32.1862 49.8533ZM39.3299 52.9529H38.2572V43.9529H39.3299V52.9529ZM43.7135 49.7244C43.7135 49.1033 43.8333 48.5447 44.073 48.0486C44.3165 47.5526 44.6528 47.1697 45.0819 46.9002C45.5149 46.6307 46.0077 46.4959 46.5605 46.4959C47.4148 46.4959 48.1048 46.7947 48.6306 47.3924C49.1602 47.9901 49.425 48.785 49.425 49.7772V49.8533C49.425 50.4705 49.3071 51.0252 49.0713 51.5174C48.8393 52.0057 48.5049 52.3865 48.0681 52.66C47.6352 52.9334 47.1365 53.0701 46.5721 53.0701C45.7217 53.0701 45.0317 52.7713 44.5021 52.1736C43.9764 51.576 43.7135 50.785 43.7135 49.8006V49.7244ZM44.792 49.8533C44.792 50.5565 44.9524 51.1209 45.2733 51.5467C45.598 51.9725 46.0309 52.1854 46.5721 52.1854C47.1172 52.1854 47.5501 51.9705 47.871 51.5408C48.1918 51.1072 48.3522 50.5018 48.3522 49.7244C48.3522 49.0291 48.188 48.4666 47.8594 48.0369C47.5347 47.6033 47.1017 47.3865 46.5605 47.3865C46.0309 47.3865 45.6038 47.5994 45.2791 48.0252C44.9544 48.451 44.792 49.0604 44.792 49.8533ZM51.2979 52.9529V47.451H50.3063V46.6131H51.2979V45.9627C51.2979 45.283 51.4776 44.7576 51.8371 44.3865C52.1966 44.0154 52.7049 43.8299 53.3621 43.8299C53.6095 43.8299 53.855 43.8631 54.0985 43.9295L54.0405 44.8084C53.8588 44.7733 53.6656 44.7557 53.4607 44.7557C53.1128 44.7557 52.8441 44.8592 52.6547 45.0662C52.4653 45.2693 52.3706 45.5623 52.3706 45.9451V46.6131H53.71V47.451H52.3706V52.9529H51.2979ZM62.6744 50.7264H59.1373L58.343 52.9529H57.1949L60.4188 44.4217H61.3929L64.6227 52.9529H63.4804L62.6744 50.7264ZM59.4737 49.8006H62.3439L60.9059 45.8104L59.4737 49.8006ZM68.6236 47.5858C68.4612 47.5584 68.2853 47.5447 68.0959 47.5447C67.3924 47.5447 66.915 47.8475 66.6637 48.4529V52.9529H65.591V46.6131H66.6347L66.6521 47.3455C67.0039 46.7791 67.5026 46.4959 68.1481 46.4959C68.3569 46.4959 68.5153 46.5233 68.6236 46.5779V47.5858ZM71.3604 45.0779V46.6131H72.5317V47.451H71.3604V51.3826C71.3604 51.6365 71.4126 51.8279 71.517 51.9568C71.6214 52.0818 71.7992 52.1443 72.0505 52.1443C72.1742 52.1443 72.3443 52.1209 72.5607 52.074V52.9529C72.2785 53.0311 72.0041 53.0701 71.7373 53.0701C71.258 53.0701 70.8966 52.9236 70.653 52.6307C70.4095 52.3377 70.2877 51.9217 70.2877 51.3826V47.451H69.1454V46.6131H70.2877V45.0779H71.3604Z" fill="white"/>
</svg>
